<svg xmlns="http://www.w3.org/2000/svg" width="140.814" height="43.862" viewBox="0 0 140.814 43.862">
  <g id="Group_2382" data-name="Group 2382" transform="translate(-1018.031 -868.693)" opacity="0.42">
    <path id="Path_305" data-name="Path 305" d="M20.46,0a7.1,7.1,0,0,1,6.191,3.439,40.394,40.394,0,0,1,2.227,4.029c1.638,3.21,3.275,6.42,4.848,9.7,2.1,4.389,4.127,8.778,6.191,13.167a9.789,9.789,0,0,1,.917,3.734,9.083,9.083,0,0,1-3.374,7.665,8.841,8.841,0,0,1-4.848,2.064A10.728,10.728,0,0,1,25.7,42.155,22.022,22.022,0,0,1,20.69,37.93c-.2-.2-.295-.2-.491,0a21.466,21.466,0,0,1-5.339,4.389,11.39,11.39,0,0,1-4.586,1.441A9.334,9.334,0,0,1,.218,36.292a9.586,9.586,0,0,1,.753-5.961c1.146-2.489,2.293-5.077,3.537-7.632,1.736-3.669,3.537-7.337,5.339-10.973,1.179-2.391,2.424-4.782,3.669-7.141a8.638,8.638,0,0,1,3.144-3.537A7.373,7.373,0,0,1,20.46,0Zm1.8,35.67c.491.524.983,1.015,1.474,1.507a16.384,16.384,0,0,0,3.8,2.882,7.864,7.864,0,0,0,5.634.884,6.579,6.579,0,0,0,4.979-6.322,6.867,6.867,0,0,0-.557-2.817c-.917-2.064-1.834-4.094-2.784-6.158q-4.373-9.335-9.139-18.474a18.7,18.7,0,0,0-1.638-2.719,4.466,4.466,0,0,0-6.453-.688A6.287,6.287,0,0,0,16.006,5.8c-1.441,2.719-2.85,5.4-4.193,8.123-1.9,3.8-3.734,7.632-5.568,11.464C5.23,27.514,4.28,29.643,3.33,31.8a6.658,6.658,0,0,0,6.878,9.3,8.594,8.594,0,0,0,3.767-1.376A20.511,20.511,0,0,0,18.3,36c.36-.393.426-.295,0-.786a29.421,29.421,0,0,1-4-6.387,12.11,12.11,0,0,1-1.212-6.518,6.716,6.716,0,0,1,2.391-4.52,7.5,7.5,0,0,1,6.878-1.539,7.056,7.056,0,0,1,5.5,6.485,10.741,10.741,0,0,1-.491,4.062A24.106,24.106,0,0,1,23.7,33.77C23.245,34.392,22.753,35.015,22.262,35.67Zm-1.8-2.162a1.64,1.64,0,0,0,.229-.262c.59-.852,1.245-1.67,1.8-2.522a14.71,14.71,0,0,0,2.686-6.813,4.623,4.623,0,0,0-.753-3.144,4.576,4.576,0,0,0-4.52-1.933,4.412,4.412,0,0,0-4.127,4.946,10.452,10.452,0,0,0,.721,3.144,23.811,23.811,0,0,0,3.177,5.536A10.922,10.922,0,0,0,20.46,33.508Z" transform="translate(1018.001 868.693)"/>
    <path id="Path_306" data-name="Path 306" d="M382.311,48.225v.655a.578.578,0,0,1-.622.655h-3.275c-.2,0-.262-.066-.229-.262V25.526c0-.426,0-.426.426-.426h3.341c.295,0,.393.1.393.393v8.418a3.022,3.022,0,0,0,.033.491,2.13,2.13,0,0,0,.262-.229,5.39,5.39,0,0,1,3.276-1.474,8.282,8.282,0,0,1,8.745,5.568,9.675,9.675,0,0,1-.36,6.878,7.979,7.979,0,0,1-5.863,4.618,6.823,6.823,0,0,1-4.193-.295,5.148,5.148,0,0,1-1.67-1.114.87.87,0,0,0-.2-.164C382.376,48.225,382.343,48.225,382.311,48.225Zm0-6.977c0,.786.033,1.539,0,2.326a1.41,1.41,0,0,0,.557,1.245c.033.033.1.066.131.131a4.879,4.879,0,0,0,4.749.852,4.31,4.31,0,0,0,2.981-2.784,5.258,5.258,0,0,0,.1-3.177,4.258,4.258,0,0,0-2.063-2.686A5.038,5.038,0,0,0,386.6,36.5a4.623,4.623,0,0,0-4.062,1.572.922.922,0,0,0-.2.491C382.311,39.447,382.311,40.331,382.311,41.248Z" transform="translate(763.717 851.814)"/>
    <path id="Path_307" data-name="Path 307" d="M272.327,48.157v.622a.612.612,0,0,1-.655.688h-3.243c-.164,0-.229-.066-.229-.229V25.459c0-.459,0-.459.426-.459h3.308c.295,0,.393.066.393.393V34.3c.131-.131.229-.164.295-.229A5.581,5.581,0,0,1,275.9,32.6,8.325,8.325,0,0,1,285,39.51a8.973,8.973,0,0,1-.884,5.961,8.054,8.054,0,0,1-6.06,4.291,6.673,6.673,0,0,1-3.832-.36,5.083,5.083,0,0,1-1.572-1.048c-.065-.066-.131-.1-.164-.164C272.458,48.157,272.425,48.157,272.327,48.157Zm0-7.009c0,.786.033,1.539,0,2.326a1.433,1.433,0,0,0,.557,1.277c.066.033.1.1.164.131a4.723,4.723,0,0,0,4.193.917,4.455,4.455,0,0,0,3.275-2.522,5.1,5.1,0,0,0,.393-2.882,4.323,4.323,0,0,0-1.67-2.981A5.022,5.022,0,0,0,276.52,36.4a4.6,4.6,0,0,0-4.029,1.572,1.292,1.292,0,0,0-.2.491C272.327,39.379,272.327,40.264,272.327,41.148Z" transform="translate(837.67 851.882)"/>
    <path id="Path_308" data-name="Path 308" d="M164.461,49.892v-.655a.588.588,0,0,1,.655-.655h3.144c.229,0,.328.066.328.328V64.8c0,.229-.1.295-.328.295h-3.079c-.524,0-.753-.229-.753-.753v-.59a1.936,1.936,0,0,0-.2.131,5.5,5.5,0,0,1-3.374,1.572,8.3,8.3,0,0,1-8.549-5.11,8.59,8.59,0,0,1-.655-3.931,8.384,8.384,0,0,1,4-7.009,8.5,8.5,0,0,1,3.669-1.179,6.36,6.36,0,0,1,3.8.721,7.4,7.4,0,0,1,1.015.753C164.265,49.7,164.33,49.761,164.461,49.892Zm0,6.878c0-.819-.033-1.6,0-2.424a1.284,1.284,0,0,0-.491-1.114,4.814,4.814,0,0,0-4.946-.983,4.356,4.356,0,0,0-2.948,2.85,5.367,5.367,0,0,0-.229,2.162,4.31,4.31,0,0,0,1.474,3.046,5.127,5.127,0,0,0,3.832,1.179,4.327,4.327,0,0,0,3.079-1.539.922.922,0,0,0,.2-.491C164.494,58.572,164.461,57.655,164.461,56.77Z" transform="translate(916.057 836.292)"/>
    <path id="Path_309" data-name="Path 309" d="M329.4,49.749c.131-.1.229-.2.36-.295a5.783,5.783,0,0,1,3.341-1.343,7.1,7.1,0,0,1,4.618,1.015,5.39,5.39,0,0,1,2.653,4.324c.066.819.1,1.638.1,2.424v8.68c0,.295-.066.393-.393.393-1.146-.033-2.26-.033-3.406,0-.295,0-.36-.1-.36-.36V55.579a9.245,9.245,0,0,0-.164-1.638,2.479,2.479,0,0,0-2.293-2.162,4.686,4.686,0,0,0-3.931,1.245,1.056,1.056,0,0,0-.393.852V64.489c0,.459,0,.459-.426.459h-3.406c-.229,0-.295-.066-.295-.295V48.767c0-.229.065-.295.295-.295h2.915a.6.6,0,0,1,.655.655v.59C329.331,49.716,329.363,49.749,329.4,49.749Z" transform="translate(799.206 836.369)"/>
    <path id="Path_310" data-name="Path 310" d="M236.758,49.741a5.365,5.365,0,0,1,2.064-1.343,6.319,6.319,0,0,1,3.308-.229.278.278,0,0,1,.229.229V52c-.2-.033-.36-.066-.557-.1a5.953,5.953,0,0,0-3.832.459,1.024,1.024,0,0,1-.328.164,1.8,1.8,0,0,0-1.015,1.8c.065,3.406.033,6.813.033,10.219,0,.393,0,.393-.393.393h-3.439c-.229,0-.328-.066-.328-.295V48.758c0-.229.065-.328.295-.328h3.177a.628.628,0,0,1,.688.655v.59C236.693,49.708,236.725,49.741,236.758,49.741Z" transform="translate(861.677 836.378)"/>
    <path id="Path_311" data-name="Path 311" d="M211.6,57.521V49.66c0-.295.065-.36.36-.36H215.4c.262,0,.36.066.36.328V65.481c0,.262-.066.328-.328.328h-3.5c-.262,0-.328-.1-.328-.36Z" transform="translate(875.731 835.541)"/>
    <path id="Path_312" data-name="Path 312" d="M212.317,30.6a2.72,2.72,0,0,1-2.817-2.784A2.793,2.793,0,0,1,212.317,25a2.8,2.8,0,1,1,0,5.6Z" transform="translate(877.143 851.882)"/>
  </g>
</svg>
