<svg xmlns="http://www.w3.org/2000/svg" width="111.447" height="38.188" viewBox="0 0 111.447 38.188">
  <g id="Group_2385" data-name="Group 2385" transform="translate(-141 -860.381)" opacity="0.42">
    <g id="Group_710" data-name="Group 710" transform="translate(141 860.381)">
      <path id="Path_1104" data-name="Path 1104" d="M0,40.979a14.115,14.115,0,0,1,2.578-6.193,8.493,8.493,0,0,1,10.1-2.637,7.252,7.252,0,0,0,6.075,0c4.386-1.808,8.386-.741,11.231,2.845-2.578,1.956-4.237,4.415-4,7.823.237,3.378,2.045,5.63,5.067,7.26-1.3,3.586-3.052,6.845-6.045,9.245a4.047,4.047,0,0,1-4.474.385,9.178,9.178,0,0,0-8.5.03c-2.222,1.037-4.119.237-5.689-1.511A24.157,24.157,0,0,1,.326,45.75,8.376,8.376,0,0,1,0,44.831Z" transform="translate(0 -22.014)"/>
      <path id="Path_1105" data-name="Path 1105" d="M344.4,63.163h-10.46c-.741,4.267,2.845,6.1,9.068,4.741.83,1.808.8,2.015-1.067,2.341a19.892,19.892,0,0,1-4.386.326c-4.03-.267-6.578-3.408-6.46-7.882.119-5.008,3.348-8.208,7.941-7.853a5.414,5.414,0,0,1,4.8,3.585c.207.5.385,1.008.593,1.511C344.4,61,344.4,62.066,344.4,63.163Zm-2.726-2.045c.207-2.637-1.215-4.386-3.556-4.474a4.178,4.178,0,0,0-4.178,4.474Z" transform="translate(-232.978 -38.568)"/>
      <path id="Path_1106" data-name="Path 1106" d="M60.057,0c.533,4.03-3.141,9.156-7.467,8.712-.5-2.7,1.185-5.926,4.06-7.527A25.779,25.779,0,0,1,59.465,0Z" transform="translate(-36.944)"/>
      <path id="Path_1107" data-name="Path 1107" d="M256.026,76.373H253.3V55.1h2.222c.089.711.178,1.422.267,2.371a6.478,6.478,0,0,1,4.889-2.785,6.014,6.014,0,0,1,6.223,3.793,9.967,9.967,0,0,1-.148,8.327,6.516,6.516,0,0,1-10.727,1.571Zm9.1-13.423c-.207-1.156-.267-1.956-.474-2.7a4.279,4.279,0,0,0-4.445-3.378,4.328,4.328,0,0,0-4.06,3.823,15.826,15.826,0,0,0,0,4.267,4.1,4.1,0,0,0,3.289,3.408A4.148,4.148,0,0,0,264,66.387C264.531,65.2,264.8,63.868,265.123,62.949Z" transform="translate(-178.242 -38.473)"/>
      <path id="Path_1108" data-name="Path 1108" d="M197.7,76.334H195V55.058h2.222c.059.711.148,1.393.178,1.837,1.363-.711,2.667-1.778,4.149-2.1a5.806,5.806,0,0,1,7.26,4.623,14.019,14.019,0,0,1-.119,6.371,6.453,6.453,0,0,1-11.023,2.608C197.7,71.119,197.7,73.7,197.7,76.334Zm-.089-13.6h.059v1.185a4.333,4.333,0,0,0,3.408,4.415,4.142,4.142,0,0,0,4.978-2.934,12.938,12.938,0,0,0,.119-5.334,4.02,4.02,0,0,0-4.356-3.26,4.388,4.388,0,0,0-4,3.556A15.663,15.663,0,0,0,197.608,62.733Z" transform="translate(-137.217 -38.435)"/>
      <path id="Path_1109" data-name="Path 1109" d="M145.283,56.539a7.651,7.651,0,0,0-.859.089c-1.363.237-2.1-.237-2.489-1.689-.415-1.659-.682-3.882-1.837-4.682-1.215-.83-3.408-.178-5.156-.385s-2.637.385-2.934,2.134a15.656,15.656,0,0,1-.83,2.519c-.741,2.193-.741,2.193-3.378,1.985.3-.948.563-1.837.889-2.726,1.956-5.778,3.971-11.527,5.867-17.335a1.333,1.333,0,0,1,1.748-1.037c.83.089,1.837-.415,2.282.948,2.193,6.578,4.445,13.127,6.667,19.705C145.283,56.184,145.253,56.332,145.283,56.539Zm-11.912-8.86h6.252c-1.067-3.26-2.1-6.341-3.171-9.63C135.386,41.4,134.378,44.509,133.371,47.679Z" transform="translate(-89.93 -24.892)"/>
      <path id="Path_1110" data-name="Path 1110" d="M314.748,54.195H312.2V32h2.548Z" transform="translate(-219.688 -22.518)"/>
    </g>
  </g>
</svg>
