<svg xmlns="http://www.w3.org/2000/svg" width="182.834" height="35.665" viewBox="0 0 182.834 35.665">
  <g id="Group_2380" data-name="Group 2380" transform="translate(-580 -869.693)" opacity="0.42">
    <path id="Path_285" data-name="Path 285" d="M20.878,20.753C17.348,23,13.9,25.192,10.447,27.388,6.98,25.177,3.529,22.981,0,20.738c3.5-2.227,6.949-4.423,10.6-6.745C7.012,11.7,3.561,9.491.016,7.216,1.616,6.2,3.106,5.24,4.6,4.3,6.4,3.154,8.2,2.024,9.976.864A.806.806,0,0,1,11.011.9C13.662,2.6,16.329,4.283,19,5.993c.6.376,1.192.784,1.882,1.239-3.514,2.243-6.949,4.439-10.541,6.729C13.913,16.283,17.348,18.479,20.878,20.753Z" transform="translate(580 869.112)"/>
    <path id="Path_286" data-name="Path 286" d="M156.093,20.141c-2.369,1.522-4.643,2.965-6.9,4.423-1.035.659-2.055,1.333-3.106,1.961a.879.879,0,0,1-.737.063c-3.294-2.055-6.572-4.141-9.851-6.227-.063-.031-.094-.11-.2-.235,3.451-2.212,6.886-4.408,10.494-6.714-3.576-2.274-7.012-4.47-10.588-6.745,3.545-2.274,6.98-4.455,10.447-6.666,3.451,2.2,6.9,4.376,10.462,6.635-3.545,2.259-6.98,4.455-10.6,6.776C149.1,15.7,152.549,17.882,156.093,20.141Z" transform="translate(466.007 869.693)"/>
    <path id="Path_287" data-name="Path 287" d="M322.3,64.95V42.41c.063-.047.11-.094.141-.094,3.372.031,6.745-.125,10.1.157,4.706.376,7.827,3.7,8.235,8.47a21.031,21.031,0,0,1-.3,6.933c-.941,3.718-3.247,6.243-7.09,6.682C329.751,64.966,326.065,64.84,322.3,64.95Zm4.863-4.3c1.333,0,2.572.047,3.827-.016a4.544,4.544,0,0,0,4.627-3.7,13.769,13.769,0,0,0-.016-6.823,4.311,4.311,0,0,0-3.419-3.5,43.551,43.551,0,0,0-5.019-.314Z" transform="translate(308.255 834.028)"/>
    <path id="Path_288" data-name="Path 288" d="M801.7,55.4V31.1h4.627v9.019c2.494-3.435,6.055-4.345,9.506-2.51a6.5,6.5,0,0,1,3.184,3.733,14.272,14.272,0,0,1-.141,10.039,7.2,7.2,0,0,1-9.694,3.906,6.121,6.121,0,0,1-3-3.059c-.125,1.02-.188,1.835-.345,2.635a.748.748,0,0,1-.471.518C804.178,55.413,802.986,55.4,801.7,55.4Zm13.427-9.161c-.047-.016-.078-.016-.126-.031-.031-.439-.031-.894-.078-1.333a4.311,4.311,0,0,0-3.451-4.031,4.1,4.1,0,0,0-4.69,2.541,7.3,7.3,0,0,0,.2,6.212,3.83,3.83,0,0,0,4.047,2.086,3.617,3.617,0,0,0,3.451-2.494A22.93,22.93,0,0,0,815.127,46.237Z" transform="translate(-95.947 843.471)"/>
    <path id="Path_289" data-name="Path 289" d="M675.027,83.066v8.815H670.4V67.49c1.239,0,2.431-.016,3.623.031.141,0,.376.314.408.518.157.831.251,1.678.376,2.667.157-.22.235-.314.3-.424a6.129,6.129,0,0,1,6.008-3.216,6.758,6.758,0,0,1,6.086,3.608,12.656,12.656,0,0,1,1.3,6.6,10.984,10.984,0,0,1-1.4,5.474c-2.243,3.749-8,4.659-10.949,1.694C675.8,84.086,675.514,83.647,675.027,83.066Zm8.768-6.588a22.336,22.336,0,0,0-.722-2.9,3.648,3.648,0,0,0-3.435-2.431,3.822,3.822,0,0,0-3.874,1.992,7.354,7.354,0,0,0-.3,6.431,4.2,4.2,0,0,0,7.921-.627A20.626,20.626,0,0,0,683.8,76.478Z" transform="translate(14.758 813.151)"/>
    <path id="Path_290" data-name="Path 290" d="M948.305,76.67a9.43,9.43,0,0,1-1.757,6.212,8.461,8.461,0,0,1-7.012,3.184,15.22,15.22,0,0,1-3.953-.455,7.034,7.034,0,0,1-5.208-5.145,13.2,13.2,0,0,1-.063-7.278,7.882,7.882,0,0,1,6.761-6.039c3.325-.533,6.431-.063,8.894,2.494a8.933,8.933,0,0,1,2.321,6.086C948.321,76.042,948.305,76.356,948.305,76.67Zm-13.615-.314c.094.847.11,1.537.251,2.2a4.312,4.312,0,0,0,8.251.549,8.424,8.424,0,0,0-.063-5.239,4.2,4.2,0,0,0-8.016.2A14.871,14.871,0,0,0,934.69,76.356Z" transform="translate(-203.981 813.242)"/>
    <path id="Path_291" data-name="Path 291" d="M537.159,76.636a9.3,9.3,0,0,1,2.243-6.964c2.29-2.463,5.239-3.059,8.392-2.667,4.768.612,7.608,3.827,7.7,8.643a17.476,17.476,0,0,1-.314,4.047,7.672,7.672,0,0,1-7.074,6.2,17.108,17.108,0,0,1-4.737-.2c-3.718-.753-5.976-3.623-6.212-7.639C537.143,77.578,537.159,77.107,537.159,76.636Zm13.6-.11a.683.683,0,0,0,.078-.016c-.173-.894-.267-1.8-.518-2.667a3.973,3.973,0,0,0-3.859-2.9,4.013,4.013,0,0,0-4.031,2.667,8.186,8.186,0,0,0-.078,5.537,4.042,4.042,0,0,0,.863,1.459,4.225,4.225,0,0,0,4.627,1.035,4.013,4.013,0,0,0,2.792-3.623C550.711,77.515,550.711,77.013,550.758,76.527Z" transform="translate(127.106 813.291)"/>
    <path id="Path_292" data-name="Path 292" d="M1052.478,81.89a37.66,37.66,0,0,0-2.635,3.953,3.4,3.4,0,0,1-3.922,2.086,22.552,22.552,0,0,0-3.121-.031c2.353-3.231,4.627-6.321,6.917-9.459-2.086-2.87-4.157-5.741-6.353-8.768,1.506,0,2.823.063,4.141-.016a2.042,2.042,0,0,1,2.149,1.114c.863,1.459,1.882,2.823,2.886,4.314,1.02-1.49,2.055-2.886,2.949-4.361a1.928,1.928,0,0,1,2.008-1.051c1.318.078,2.651.016,4.2.016-2.212,3-4.314,5.835-6.463,8.737,2.243,3.106,4.47,6.212,6.823,9.49a20.012,20.012,0,0,0-3.09.031,3.264,3.264,0,0,1-3.7-1.945A45.264,45.264,0,0,0,1052.478,81.89Z" transform="translate(-299.229 810.971)"/>
    <path id="Path_293" data-name="Path 293" d="M88.884,150.64c-1.192.769-2.337,1.49-3.467,2.227-2.133,1.365-4.267,2.714-6.4,4.078a.827.827,0,0,1-1.051.047c-3.247-2.086-6.51-4.157-9.757-6.227-.031-.031-.047-.094-.11-.188l3.529-2.259c2.086-1.333,4.188-2.651,6.259-4.016a.9.9,0,0,1,1.161.016c2.071,1.365,4.172,2.682,6.259,4.016C86.468,149.1,87.645,149.856,88.884,150.64Z" transform="translate(522.582 748.197)"/>
    <path id="Path_294" data-name="Path 294" d="M462.074,87.065H457.4V68.885c1.161,0,2.29-.031,3.435.031.157.016.392.424.439.674.173.988.3,1.992.455,3.106,1.882-3.451,3.216-4.188,7.09-3.937v4.847c-.957,0-1.929-.078-2.87.016-2.729.251-3.749,1.3-3.827,4.063-.078,2.792-.031,5.584-.031,8.376C462.074,86.375,462.074,86.673,462.074,87.065Z" transform="translate(194.347 811.757)"/>
    <path id="Path_295" data-name="Path 295" d="M353.3,82.153V67.8a43.773,43.773,0,0,1,5.019.314,4.292,4.292,0,0,1,3.419,3.5,13.768,13.768,0,0,1,.016,6.823,4.544,4.544,0,0,1-4.627,3.7C355.888,82.184,354.633,82.153,353.3,82.153Z" transform="translate(282.118 812.528)" fill="#fff"/>
    <path id="Path_296" data-name="Path 296" d="M839.245,98.24a22.95,22.95,0,0,1-.643,2.949,3.617,3.617,0,0,1-3.451,2.494A3.83,3.83,0,0,1,831.1,101.6a7.3,7.3,0,0,1-.2-6.212,4.1,4.1,0,0,1,4.69-2.541,4.31,4.31,0,0,1,3.451,4.031c.047.439.047.878.078,1.333C839.166,98.225,839.2,98.225,839.245,98.24Z" transform="translate(-120.065 791.467)" fill="#fff"/>
    <path id="Path_297" data-name="Path 297" d="M707.906,98.381c-.157.973-.2,1.741-.392,2.463a3.976,3.976,0,0,1-3.733,3.137,3.933,3.933,0,0,1-4.188-2.51,7.358,7.358,0,0,1,.3-6.431,3.822,3.822,0,0,1,3.874-1.992,3.648,3.648,0,0,1,3.435,2.431A21.525,21.525,0,0,1,707.906,98.381Z" transform="translate(-9.352 791.249)" fill="#fff"/>
    <path id="Path_299" data-name="Path 299" d="M576.353,98.261c-.047.5-.047.988-.125,1.49a4.013,4.013,0,0,1-2.792,3.623,4.253,4.253,0,0,1-4.627-1.035,4.18,4.18,0,0,1-.863-1.459,8.283,8.283,0,0,1,.078-5.537,4.013,4.013,0,0,1,4.031-2.667,3.973,3.973,0,0,1,3.859,2.9,22.235,22.235,0,0,1,.518,2.667A.142.142,0,0,0,576.353,98.261Z" transform="translate(101.511 791.557)" fill="#fff"/>
  </g>
</svg>
