<svg xmlns="http://www.w3.org/2000/svg" width="118.5" height="38.93" viewBox="0 0 118.5 38.93">
  <g id="Group_2383" data-name="Group 2383" transform="translate(-1224 -869.693)" opacity="0.42">
    <path id="Path_319" data-name="Path 319" d="M22.268,13.716h6.4c.32,0,.522.047.569.415a14.369,14.369,0,0,1-1.9,9.852,13.218,13.218,0,0,1-10.954,6.177,15.442,15.442,0,0,1-9.71-2.608A14.855,14.855,0,0,1,3.785,5.2,14.9,14.9,0,0,1,14.514.023,14.515,14.515,0,0,1,25.1,3.651c.4.344.462.569.047.96-.735.688-1.423,1.434-2.1,2.17-.249.273-.4.249-.676.012A10.759,10.759,0,0,0,9.061,6.128,11.1,11.1,0,0,0,5.706,20.141a10.855,10.855,0,0,0,11.879,5.691,8.9,8.9,0,0,0,6.675-4.79,9.136,9.136,0,0,0,.771-2.418c.13-.711.095-.735-.616-.747-2.822-.012-5.643-.047-8.477-.036-.533,0-.676-.154-.652-.664.036-.984.036-1.98,0-2.964-.012-.427.13-.533.533-.533,2.146.036,4.3.024,6.449.036Z" transform="translate(1224.023 869.694)"/>
    <path id="Path_320" data-name="Path 320" d="M631.279,107.555c-3.438,3.628-9.544,2.537-12.578-1.648a9.79,9.79,0,0,1,2.952-14.333,7.74,7.74,0,0,1,8.322-.154c.462.273.806.688,1.352,1.067,0-.451.012-.794,0-1.138s.107-.451.45-.451c1.043.012,2.1.036,3.142,0,.51-.024.51.249.51.616-.012,4.185.012,8.37-.012,12.555a53.242,53.242,0,0,1-.107,6.153c-.4,3.367-1.8,6.117-5.1,7.481a9.5,9.5,0,0,1-12.4-4.4c-.237-.462-.19-.664.32-.842.889-.32,1.767-.7,2.632-1.079.367-.166.545-.154.759.261a5.271,5.271,0,0,0,7.042,2.5A4.7,4.7,0,0,0,631.279,110,11.978,11.978,0,0,0,631.279,107.555Zm-10.219-7.516a5.95,5.95,0,0,0,1,3.485,5.067,5.067,0,0,0,8.714-.154,6.493,6.493,0,0,0,.2-6.26,4.894,4.894,0,0,0-6.627-2.478A5.674,5.674,0,0,0,621.06,100.039Z" transform="translate(680.358 790.116)"/>
    <path id="Path_321" data-name="Path 321" d="M447.7,90.6a9.735,9.735,0,1,1-9.84,9.354A9.569,9.569,0,0,1,447.7,90.6Zm-.119,3.877a4.365,4.365,0,0,0-2.6.676,6.02,6.02,0,0,0-2.561,7.018,5.345,5.345,0,0,0,7.789,3.331,5.708,5.708,0,0,0,2.857-5.762A5.5,5.5,0,0,0,447.582,94.476Z" transform="translate(838.057 789.835)"/>
    <path id="Path_322" data-name="Path 322" d="M278.7,100.53a9.751,9.751,0,1,1-9.947-9.733A9.571,9.571,0,0,1,278.7,100.53Zm-4.28.036v-.415a5.508,5.508,0,0,0-6.959-5.323,5.8,5.8,0,0,0-3.972,6.165,5.471,5.471,0,1,0,10.931-.427Z" transform="translate(995.532 789.661)"/>
    <path id="Path_323" data-name="Path 323" d="M860.727,109.812c-6.639,0-10.765-4.173-10.729-9.662a9.481,9.481,0,0,1,3.45-7.789,8.618,8.618,0,0,1,13.159,2.62c.415.723.7,1.494,1.043,2.253.166.379.047.5-.3.64-3.414,1.4-6.829,2.822-10.231,4.232-.6.249-1.2.522-1.814.735-.463.166-.427.368-.214.735a5.326,5.326,0,0,0,7.67,1.375,5.629,5.629,0,0,0,1.28-1.316c.178-.261.32-.3.569-.119.9.6,1.8,1.209,2.715,1.8.285.19.237.332.047.557C865.386,108.413,862.8,109.788,860.727,109.812Zm-1.257-15.661a5.349,5.349,0,0,0-5.359,5.264c.012.486.237.285.451.2,2.585-1.067,5.169-2.146,7.754-3.2.462-.19.439-.379.19-.723A3.767,3.767,0,0,0,859.471,94.151Z" transform="translate(474.775 790.053)"/>
    <path id="Path_324" data-name="Path 324" d="M802.087,22.629c0,4.541-.012,9.081.012,13.622,0,.5-.142.64-.628.616-1.043-.036-2.1-.024-3.141,0-.391.012-.546-.083-.534-.522q.018-13.657.012-27.315c0-.581.107-.794.735-.759.984.059,1.98.036,2.964.012.463-.012.593.13.593.593-.012,4.6-.012,9.176-.012,13.752Z" transform="translate(520.789 862.405)"/>
  </g>
</svg>
