<svg xmlns="http://www.w3.org/2000/svg" xmlns:xlink="http://www.w3.org/1999/xlink" width="461.396" height="372.285" viewBox="0 0 461.396 372.285">
  <defs>
    <linearGradient id="linear-gradient" x1="0.822" y1="0.11" x2="0.501" y2="0.437" gradientUnits="objectBoundingBox">
      <stop offset="0" stop-color="#5d6faa"/>
      <stop offset="1" stop-color="#90aadb"/>
    </linearGradient>
    <linearGradient id="linear-gradient-2" x1="0.899" y1="0.153" x2="0.448" y2="0.328" gradientUnits="objectBoundingBox">
      <stop offset="0" stop-color="#edf3fd"/>
      <stop offset="1" stop-color="#d6e3fa"/>
    </linearGradient>
    <linearGradient id="linear-gradient-3" x1="-0.01" y1="1.012" x2="0.647" y2="0.385" gradientUnits="objectBoundingBox">
      <stop offset="0" stop-color="#ff7f31"/>
      <stop offset="1" stop-color="#ffd25f"/>
    </linearGradient>
    <linearGradient id="linear-gradient-4" x1="0.499" y1="0.498" x2="0.499" y2="-0.064" gradientUnits="objectBoundingBox">
      <stop offset="0" stop-color="#ecf2fc" stop-opacity="0.643"/>
      <stop offset="1" stop-color="#d4e1f8"/>
    </linearGradient>
    <linearGradient id="linear-gradient-5" x1="0.317" y1="-0.092" x2="1" y2="0.5" gradientUnits="objectBoundingBox">
      <stop offset="0" stop-color="#cfddf3"/>
      <stop offset="1" stop-color="#a1b8e3"/>
    </linearGradient>
    <linearGradient id="linear-gradient-6" x1="2.276" y1="-0.303" x2="0.5" y2="1" xlink:href="#linear-gradient-5"/>
    <linearGradient id="linear-gradient-13" x1="0.385" y1="0.415" x2="0.773" y2="0.306" gradientUnits="objectBoundingBox">
      <stop offset="0" stop-color="#7fa0d4"/>
      <stop offset="1" stop-color="#d6e3fa"/>
    </linearGradient>
    <clipPath id="clip-path">
      <path id="Path_31" data-name="Path 31" d="M31.635,24.953Q30.42,29.145,32.734,31c2.315,1.859,4.639,5.021,6.93,5.281s4.772,1.517,5.174,4.731c.194,1.553,8.145,9.581,10.986,20.626Q56.9,65.837,53.2,74.552L46.63,70.936,37.274,55.78Q21.688,50.366,19.7,49.072c-1.987-1.294-8.422-6.83-7.181-8.905S9.725,24.9,7.328,22.34,2.967,13.53,2.919,11.223s-.879-9.211,5.1-8.991Q14.008,2.453,31.635,24.953Z" transform="translate(-2.854 -2.227)" fill="url(#linear-gradient)"/>
    </clipPath>
    <linearGradient id="linear-gradient-15" x1="0.497" x2="0.497" y2="1" gradientUnits="objectBoundingBox">
      <stop offset="0" stop-color="#cfddf3"/>
      <stop offset="1" stop-color="#a1b8e3" stop-opacity="0"/>
    </linearGradient>
    <radialGradient id="radial-gradient" cx="26.873" cy="31.437" r="18.784" gradientTransform="translate(-1.829 -2.455) scale(1.096 1.096)" gradientUnits="userSpaceOnUse">
      <stop offset="0" stop-color="#e1edff"/>
      <stop offset="1" stop-color="#a1b8e3"/>
    </radialGradient>
    <linearGradient id="linear-gradient-16" x1="0.021" y1="-0.073" x2="0.152" y2="0.436" gradientUnits="objectBoundingBox">
      <stop offset="0" stop-color="#2d6dc0"/>
      <stop offset="1" stop-color="#143b8c"/>
    </linearGradient>
    <linearGradient id="linear-gradient-17" x1="0.607" y1="0.381" x2="0.704" y2="0.893" gradientUnits="objectBoundingBox">
      <stop offset="0" stop-color="#174293" stop-opacity="0"/>
      <stop offset="1" stop-color="#051e4b"/>
    </linearGradient>
    <linearGradient id="linear-gradient-18" x1="-0.114" y1="0.164" x2="0.525" y2="1.033" xlink:href="#linear-gradient-16"/>
    <linearGradient id="linear-gradient-19" x1="0.385" y1="0.59" x2="0.311" y2="0.812" gradientUnits="objectBoundingBox">
      <stop offset="0" stop-color="#2e7de7" stop-opacity="0"/>
      <stop offset="1" stop-color="#00357e" stop-opacity="0.502"/>
    </linearGradient>
    <clipPath id="clip-path-2">
      <path id="Union_1" data-name="Union 1" d="M0,32.029q11.7,5.787,12.075,8c.372,2.208,18.477,42.48,24.2,46.582s17.611,6.044,22.377,6.044c-.43-1.194-1.185-2.245-1.185-3.474A3.905,3.905,0,0,1,58.6,86.607c2.191-2.549,6.491-2.995,10.75-1.225a58.545,58.545,0,0,1,11.187,6.872q16.526-3.764,22.207-12.547c5.681-8.783,8.528-32.114,8.528-39.682,0-5.04.4-14.958.4-22.518a60.965,60.965,0,0,0-.4-8.68C110.365,3.763,106.2,0,97.6,0Q88.986,0,0,32.029Z" transform="translate(111.674 92.651) rotate(180)" fill="none"/>
    </clipPath>
    <linearGradient id="linear-gradient-20" x1="0.5" y1="1" x2="0.5" y2="-0.018" gradientUnits="objectBoundingBox">
      <stop offset="0" stop-color="#70b8f9" stop-opacity="0.275"/>
      <stop offset="1" stop-color="#3d82f0"/>
    </linearGradient>
    <linearGradient id="linear-gradient-21" x1="0.552" y1="0.544" x2="1" y2="0.82" gradientUnits="objectBoundingBox">
      <stop offset="0" stop-color="#3d82f0" stop-opacity="0"/>
      <stop offset="1" stop-color="#3d82f0"/>
    </linearGradient>
    <linearGradient id="linear-gradient-23" x1="-0.042" y1="0.111" x2="0.793" y2="0.744" gradientUnits="objectBoundingBox">
      <stop offset="0" stop-color="#00224e"/>
      <stop offset="1" stop-color="#113275"/>
    </linearGradient>
    <radialGradient id="radial-gradient-2" cx="52.349" cy="54.139" r="26.934" gradientTransform="translate(-10.733 -10.895) scale(1.213 1.213)" xlink:href="#linear-gradient-16"/>
    <linearGradient id="linear-gradient-24" x1="1.16" y1="0.128" x2="0.516" y2="0.696" xlink:href="#linear-gradient-5"/>
    <clipPath id="clip-path-3">
      <path id="Path_41" data-name="Path 41" d="M138.424,113.919c2.417-1.362,10.508,1.889,10.508,8.464,4.3-14.626,16.221-34.422,16.221-56.057-5.466-18.861-19.726-48.6-22.911-53.262Q139.057,8.4,110.683,0,104.337,6.937,95.64,6.937c-8.7,0-9.153-5.333-11.476-5.611S68.68,6.937,62.189,13.2,48.747,44.114,31.672,63.245,8.472,95.724,0,102.912c3.108,2.783,7.318,4.4,7.318,11.008,3.066-2.248,20.176-14.016,34.677-27.713s20.932-25.089,23.12-26.631c2.517-1.773-3.172,53.093-2.927,62.809s33.65,10.27,44.1,10.27,26.6-3.616,30.748-7.181c.683-.588-1.108-77.729,0-74.492,2.811,8.212,9.338,12.265,9.338,17.673C146.371,81.221,138.409,114.8,138.424,113.919Z" fill="url(#linear-gradient-2)"/>
    </clipPath>
    <linearGradient id="linear-gradient-26" y1="1.073" x2="1.022" y2="0.063" gradientUnits="objectBoundingBox">
      <stop offset="0" stop-color="#eaf0f7" stop-opacity="0.114"/>
      <stop offset="1" stop-color="#d1dded"/>
    </linearGradient>
    <linearGradient id="linear-gradient-27" x1="1.088" y1="0.339" x2="0.375" y2="0.5" xlink:href="#linear-gradient-26"/>
    <linearGradient id="linear-gradient-28" x1="0.129" y1="0.492" x2="0.409" y2="0.492" gradientUnits="objectBoundingBox">
      <stop offset="0" stop-color="#b1c6e7"/>
      <stop offset="1" stop-color="#e5effd"/>
    </linearGradient>
    <linearGradient id="linear-gradient-29" x1="0.577" y1="0.5" x2="0.208" y2="0.417" xlink:href="#linear-gradient-13"/>
    <linearGradient id="linear-gradient-30" x1="0.5" y1="1.027" x2="1.008" y2="0.704" gradientUnits="objectBoundingBox">
      <stop offset="0" stop-color="#002d65"/>
      <stop offset="0.878" stop-color="#3a74c6"/>
      <stop offset="1" stop-color="#3062aa"/>
    </linearGradient>
    <radialGradient id="radial-gradient-3" cx="115.485" cy="90.821" r="29.212" gradientTransform="translate(-58.924 -46.134) scale(1.537 1.537)" xlink:href="#linear-gradient-16"/>
    <linearGradient id="linear-gradient-31" x1="0.521" y1="0.044" x2="0.494" y2="0.739" gradientUnits="objectBoundingBox">
      <stop offset="0" stop-color="#eaefff"/>
      <stop offset="1" stop-color="#fff"/>
    </linearGradient>
    <linearGradient id="linear-gradient-32" x1="0.5" x2="0.432" y2="0.603" gradientUnits="objectBoundingBox">
      <stop offset="0" stop-color="#0041b2"/>
      <stop offset="1" stop-color="#2d64d7" stop-opacity="0"/>
    </linearGradient>
    <linearGradient id="linear-gradient-33" x1="0.467" y1="-0.141" x2="0.467" y2="1.136" gradientUnits="objectBoundingBox">
      <stop offset="0" stop-color="#4376c9"/>
      <stop offset="1" stop-color="#d6e3fa"/>
    </linearGradient>
    <linearGradient id="linear-gradient-34" x1="0.091" y1="0.645" x2="0.86" y2="0.645" gradientUnits="objectBoundingBox">
      <stop offset="0" stop-color="#133b8b" stop-opacity="0.671"/>
      <stop offset="1" stop-color="#a9bfe7" stop-opacity="0"/>
    </linearGradient>
    <clipPath id="clip-path-4">
      <path id="Union_2" data-name="Union 2" d="M2.134,5.48C1.63,10.955,2.225,18.3.148,23.27A1.7,1.7,0,0,0,0,23.92c.007,3.684,17.569-1.265,17.562-5.7a1.652,1.652,0,0,0-.037-.344,22.633,22.633,0,0,1-.491-4.861c0-2.674.351-5.306.351-8.725,0-3.05-2.63-4.288-5.707-4.288C7.469,0,2.425,2.317,2.134,5.48Z" transform="translate(17.562 25.208) rotate(180)" fill="none"/>
    </clipPath>
    <linearGradient id="linear-gradient-35" x1="0.503" x2="0.503" y2="1" gradientUnits="objectBoundingBox">
      <stop offset="0" stop-color="#699df3"/>
      <stop offset="1" stop-color="#8597b5" stop-opacity="0"/>
    </linearGradient>
    <linearGradient id="linear-gradient-36" x1="-0.039" y1="0.501" x2="0.695" y2="0.604" gradientUnits="objectBoundingBox">
      <stop offset="0" stop-color="#7798f6"/>
      <stop offset="1" stop-color="#e5effd"/>
    </linearGradient>
    <clipPath id="clip-path-5">
      <path id="Path_44" data-name="Path 44" d="M83.46,48.7,77.891,3.522,1.955,2l6.64,44.106Z" transform="translate(-1.955 -2)" fill="url(#linear-gradient-3)"/>
    </clipPath>
    <linearGradient id="linear-gradient-38" x1="0.728" y1="0.279" x2="0" y2="0.5" gradientUnits="objectBoundingBox">
      <stop offset="0" stop-color="#ff7f31"/>
      <stop offset="1" stop-color="#ffc83a" stop-opacity="0"/>
    </linearGradient>
    <linearGradient id="linear-gradient-39" x1="0.5" y1="0.7" x2="1.004" y2="0.366" xlink:href="#linear-gradient-38"/>
    <linearGradient id="linear-gradient-40" x1="0.401" y1="0.136" x2="0.082" y2="0.776" gradientUnits="objectBoundingBox">
      <stop offset="0" stop-color="#ecf2fb"/>
      <stop offset="1" stop-color="#d5e1f5"/>
    </linearGradient>
    <linearGradient id="linear-gradient-41" x1="0.841" y1="0.588" x2="0.55" y2="0.848" gradientUnits="objectBoundingBox">
      <stop offset="0" stop-color="#3d82f0"/>
      <stop offset="1" stop-color="#143b8c"/>
    </linearGradient>
    <linearGradient id="linear-gradient-42" x1="1.305" y1="0.617" x2="0.028" y2="0.659" gradientUnits="objectBoundingBox">
      <stop offset="0" stop-color="#70b8f9"/>
      <stop offset="1" stop-color="#0457dc"/>
    </linearGradient>
    <linearGradient id="linear-gradient-43" x1="0.754" y1="0.69" x2="0.245" y2="0.982" gradientUnits="objectBoundingBox">
      <stop offset="0" stop-color="#3d82f0" stop-opacity="0"/>
      <stop offset="1" stop-color="#0049bd"/>
    </linearGradient>
    <linearGradient id="linear-gradient-44" x1="0.5" x2="0.5" y2="1" gradientUnits="objectBoundingBox">
      <stop offset="0" stop-color="#b2c7e8"/>
      <stop offset="1" stop-color="#d6e3fa"/>
    </linearGradient>
    <linearGradient id="linear-gradient-45" x1="0.5" x2="0.5" y2="1" gradientUnits="objectBoundingBox">
      <stop offset="0" stop-color="#c6d6ee"/>
      <stop offset="1" stop-color="#e5effd"/>
    </linearGradient>
    <linearGradient id="linear-gradient-46" x1="0.399" y1="0.212" x2="0.656" y2="0.212" gradientUnits="objectBoundingBox">
      <stop offset="0" stop-color="#002b64"/>
      <stop offset="1" stop-color="#0f3177"/>
    </linearGradient>
    <linearGradient id="linear-gradient-47" x1="0.844" y1="0.268" x2="0.167" y2="0.731" gradientUnits="objectBoundingBox">
      <stop offset="0" stop-color="#dbe9ff"/>
      <stop offset="0.441" stop-color="#a7bde4"/>
      <stop offset="1" stop-color="#5876af"/>
    </linearGradient>
    <linearGradient id="linear-gradient-48" x1="0.675" y1="0.738" x2="0.63" y2="0.849" gradientUnits="objectBoundingBox">
      <stop offset="0" stop-color="#869fce" stop-opacity="0"/>
      <stop offset="1" stop-color="#4975c1" stop-opacity="0.231"/>
    </linearGradient>
  </defs>
  <g id="team" transform="translate(-0.001 0)">
    <path id="window" d="M153.576,28.759C80.457,22.639,17.693,51.017,3.1,101.78c-17.785,61.873,42.733,133.572,135.17,160.145,74.53,21.425,147.055,6.974,181.68-31.861,54.333-3.527,98.3-29.625,110.157-70.883C447.015,100.365,392.279,33.01,307.851,8.74A219.98,219.98,0,0,0,247.278,0C210.007,0,176.617,10.321,153.576,28.759Z" transform="translate(443.247 292.72) rotate(180)" opacity="0.2" fill="url(#linear-gradient-4)"/>
    <g id="tree" transform="translate(280.798 123.63) rotate(31)" opacity="0.3">
      <path id="leaves" d="M15.246.863c3.76-3.327,18.06,3.327,23.73,13.654s-4.847,14,9.458,30.521,23.485,22.843,14.8,50.069,3.313,42.356-12.534,49.459-24.973-16.472-23.156-37.207-1.9-25.033-17.4-22.885S7.716,56.181,7.716,49.536-1.683,30.549.266,21.263,11.486,4.19,15.246.863Z" transform="translate(66.615 145.858) rotate(180)" fill="url(#linear-gradient-5)"/>
      <path id="branch" d="M8.3,0C8.3,5.1,7.009,20.991,0,30.668" transform="translate(50.612 116.046) rotate(180)" fill="none" stroke="#707070" stroke-linecap="round" stroke-miterlimit="10" stroke-width="6"/>
      <path id="branch-2" data-name="branch" d="M0,0C0,5.1,14.318,8.681,21.327,18.359" transform="translate(31.357 86.286) rotate(180)" fill="none" stroke="#707070" stroke-linecap="round" stroke-miterlimit="10" stroke-width="6"/>
      <path id="branch-3" data-name="branch" d="M0,0C0,2.17,3.737,11.952,7.308,23.285c11.182,35.49,29.207,79.191,29.207,109.475" transform="translate(59.814 168.882) rotate(180)" fill="none" stroke="#707070" stroke-linecap="round" stroke-miterlimit="10" stroke-width="6"/>
    </g>
    <g id="plant" transform="matrix(-1, -0.017, 0.017, -1, 189.149, 271.676)" opacity="0.3">
      <path id="stem" d="M0,0C0,16.056,13.421,65.743,31.536,92.93" transform="translate(18.239 0)" fill="none" stroke="#707070" stroke-linecap="round" stroke-miterlimit="10" stroke-width="6"/>
      <ellipse id="leaf" cx="4.656" cy="14.61" rx="4.656" ry="14.61" transform="translate(37.355 83.043) rotate(30)" fill="url(#linear-gradient-6)"/>
      <ellipse id="leaf-2" data-name="leaf" cx="4.656" cy="14.61" rx="4.656" ry="14.61" transform="matrix(0.035, -0.999, 0.999, 0.035, 45.864, 87.26)" fill="url(#linear-gradient-6)"/>
      <ellipse id="leaf-3" data-name="leaf" cx="4.656" cy="14.61" rx="4.656" ry="14.61" transform="matrix(-0.017, -1, 1, -0.017, 37.431, 66.833)" fill="url(#linear-gradient-6)"/>
      <ellipse id="leaf-4" data-name="leaf" cx="4.656" cy="14.61" rx="4.656" ry="14.61" transform="matrix(-0.017, -1, 1, -0.017, 30.366, 46.281)" fill="url(#linear-gradient-6)"/>
      <ellipse id="leaf-5" data-name="leaf" cx="4.656" cy="14.611" rx="4.656" ry="14.611" transform="matrix(0.839, -0.545, 0.545, 0.839, 47.404, 98.527)" fill="url(#linear-gradient-6)"/>
      <ellipse id="leaf-6" data-name="leaf" cx="4.656" cy="14.61" rx="4.656" ry="14.61" transform="translate(28.602 61.522) rotate(41)" fill="url(#linear-gradient-6)"/>
      <ellipse id="leaf-7" data-name="leaf" cx="4.656" cy="14.61" rx="4.656" ry="14.61" transform="translate(21.371 39.756) rotate(47)" fill="url(#linear-gradient-6)"/>
    </g>
    <g id="guy_on_chair" data-name="guy on chair" transform="translate(0 102.12)">
      <path id="Path_29" data-name="Path 29" d="M11.443,18.567,100.207,2q38.64,56.62,36.569,95.5-24.413,10.119-94,32.026L5.455,29.144a7.943,7.943,0,0,1,5.987-10.577Z" transform="translate(-4.955 46.406)" fill="url(#linear-gradient-13)"/>
      <g id="neck" transform="translate(66.441 47.304)">
        <path id="Path_30" data-name="Path 30" d="M31.635,24.953Q30.42,29.145,32.734,31c2.315,1.859,4.639,5.021,6.93,5.281s4.772,1.517,5.174,4.731c.194,1.553,8.145,9.581,10.986,20.626Q56.9,65.837,53.2,74.552L46.63,70.936,37.274,55.78Q21.688,50.366,19.7,49.072c-1.987-1.294-8.422-6.83-7.181-8.905S9.725,24.9,7.328,22.34,2.967,13.53,2.919,11.223s-.879-9.211,5.1-8.991Q14.008,2.453,31.635,24.953Z" transform="translate(-2.854 -2.227)" fill="url(#linear-gradient)"/>
        <g id="neck-2" data-name="neck" clip-path="url(#clip-path)">
          <path id="Path_3" data-name="Path 3" d="M9.062,35.351s11.351-20.145,16.653-25.2S.417,0,.417,0L9.062,39.154Z" transform="translate(-2.664 -0.762)" fill="url(#linear-gradient-15)"/>
        </g>
      </g>
      <path id="Path_32" data-name="Path 32" d="M41.11,7.182c2.739,1.845.4,9.268,3.367,13.505C46.1,23,49.508,24.293,51.082,25.215c4.454,2.609-.123,4.471-1.043,6.023s-.187,5.06.5,7.825,3.135,8.994.513,10.386-18.72,7.47-23.375,5.613S21.36,43.908,20.212,43.3s-1.953.033-3.012.3a6.04,6.04,0,0,1-6.572-3.057c-1.5-2.491-3.635-1.354-2.481-4.758,1.78-5.251,12.1-25.932,16.2-27.419S36.873,4.329,41.11,7.182Z" transform="translate(60.315 15.464)" fill="url(#radial-gradient)"/>
      <g id="Group_12" data-name="Group 12" transform="translate(56.218)">
        <path id="Mask_Path" data-name="Mask Path" d="M37.547,29.451c10.483-2.614,15.358-.272,19.154-8.42,2.242-4.812-2.123-19.575-9.475-19.909-1.809,8.252-10.549,8.961-15.613,9.647C4.423,14.451,1.577,39.313,9.718,53.957A64.732,64.732,0,0,0,16.926,64.6c1.373,1.612,3.168,3.555,3.774,4.477.2.308,1.956,4.191,2.26,4.115.916-.228.548-.275.1-4.294a48.863,48.863,0,0,0-1.516-8.371c-.241-.966-4.8-8.386-1.3-11.072q3.5-2.687,9.461,3.282l2.413-.909a53.2,53.2,0,0,1-3.023-7.849C28.462,41.445,27.064,32.065,37.547,29.451Z" transform="translate(-5.712 -1.123)" fill="url(#linear-gradient-16)"/>
        <path id="Mask_Path-2" data-name="Mask Path" d="M37.547,29.451c10.483-2.614,15.358-.272,19.154-8.42,2.242-4.812-2.123-19.575-9.475-19.909-1.809,8.252-10.549,8.961-15.613,9.647C4.423,14.451,1.577,39.313,9.718,53.957A64.732,64.732,0,0,0,16.926,64.6c1.373,1.612,3.168,3.555,3.774,4.477.2.308,1.956,4.191,2.26,4.115.916-.228.548-.275.1-4.294a48.863,48.863,0,0,0-1.516-8.371c-.241-.966-4.8-8.386-1.3-11.072q3.5-2.687,9.461,3.282l2.413-.909a53.2,53.2,0,0,1-3.023-7.849C28.462,41.445,27.064,32.065,37.547,29.451Z" transform="translate(-5.712 -1.123)" fill="url(#linear-gradient-17)"/>
      </g>
      <path id="Path_33" data-name="Path 33" d="M7.477,14.194c.8,1.783,3.82,5.894,6.545,7.379s8.465,1.576,9.643-.117S30.191,12.1,35.011,10.893a33.272,33.272,0,0,0,1.981,4.953q-5.6,2.327-6.5,4.377c-.9,2.051-1.39.677-.487,1.588s5.62.211,5.978-3.345C37.343,21.3,38.8,28.941,38.289,30.687s-3.481,2.547-6.408,2.735S18.527,35.2,15.871,34.659s-6.03-.23-8.252-6.665S5.891,17.39,2.992,11.91,6.677,12.411,7.477,14.194Z" transform="translate(75.141 36.631)" fill="url(#linear-gradient-18)"/>
      <g id="shirt" transform="translate(43.174 76.454)">
        <g id="Group_13" data-name="Group 13" transform="translate(0)">
          <path id="Mask_Path-3" data-name="Mask Path" d="M32.378,2.019Q15.853,5.783,10.171,14.567C4.49,23.35,1.643,46.681,1.643,54.249s-.906,26.132,0,31.2,5.066,8.827,13.676,8.827q8.61,0,97.6-32.029-11.7-5.787-12.075-8c-.372-2.208-18.477-42.48-24.2-46.582S59.025,1.622,54.26,1.622c.7,1.934,2.247,3.495.056,6.044s-6.491,2.995-10.75,1.225A58.538,58.538,0,0,1,32.378,2.019Z" transform="translate(-1.24 -1.622)" fill="#3d82f0"/>
          <path id="Mask_Path-4" data-name="Mask Path" d="M32.378,2.019Q15.853,5.783,10.171,14.567C4.49,23.35,1.643,46.681,1.643,54.249s-.906,26.132,0,31.2,5.066,8.827,13.676,8.827q8.61,0,97.6-32.029-11.7-5.787-12.075-8c-.372-2.208-18.477-42.48-24.2-46.582S59.025,1.622,54.26,1.622c.7,1.934,2.247,3.495.056,6.044s-6.491,2.995-10.75,1.225A58.538,58.538,0,0,1,32.378,2.019Z" transform="translate(-1.24 -1.622)" fill="url(#linear-gradient-19)"/>
        </g>
        <g id="shirt-2" data-name="shirt" transform="translate(0 0)" clip-path="url(#clip-path-2)">
          <path id="Path_6" data-name="Path 6" d="M31.82,10.936c9.124,9.34-8.875,14.316-16.224,11.828S0,10.936,0,10.936,20.781-4.529,26.3,3.2,22.7,1.6,31.82,10.936Z" transform="translate(27.003 -9.387)" opacity="0.585" fill="url(#linear-gradient-20)"/>
          <path id="Path_8" data-name="Path 8" d="M48.738,58.354c-6.5,0-48.738-7-48.738-12.673S3.257,0,3.257,0" transform="translate(23.088 27.695)" opacity="0.547" fill="url(#linear-gradient-21)"/>
          <path id="Path_8_Copy" data-name="Path 8 Copy" d="M55.517,61.887c-2.942,0-16.547,17.237-28.977,11.435C11.525,66.314,2.782,40.364,2.782,37.258c0-2.377-3.942-10.8-2.441-19.987C1.231,11.827,8.495,0,8.495,0" transform="translate(75.486 -0.464)" opacity="0.547" fill="url(#linear-gradient-21)"/>
        </g>
      </g>
    </g>
    <g id="guy_standin" data-name="guy standin" transform="translate(97.17)">
      <path id="Path_34" data-name="Path 34" d="M31.1,18.579q-2.4,18.277-.919,21.271c1.479,2.994-1.386,17.079-10.507,17.9s-13.9-3.07-14.261-12.573-.93-13.167-2.4-17.372S28.991,6.174,30.183,9.395A24.36,24.36,0,0,1,31.1,18.579Z" transform="translate(95.345 33.497)" fill="url(#linear-gradient-23)"/>
      <path id="Path_35" data-name="Path 35" d="M2.145,8.416c0,2.709-.36,11.167-.088,13.31A51.453,51.453,0,0,1,2.3,31.189c-.244,4.126,1.9,14.274,4.29,17.95,1.428,2.2,7.088,6.427,12.641,5.832,6.582-.7,13.779-7.061,14.549-10.239,1.419-5.859.243-11.029,4.333-14.143s7.07-6.005,6.7-10.812S40.249,3.53,38.114,3.049,2.145,5.707,2.145,8.416Z" transform="translate(86.813 15.667)" fill="url(#radial-gradient-2)"/>
      <path id="Path_36" data-name="Path 36" d="M53.07,24.624C51.129,27.553,34.137,41.671,17.106,32.5S22.73,6.7,33,4.8s19.12-.843,25.334,7.779,9.331,23.4-2.825,43.448a48.387,48.387,0,0,1-.8-6.36q7.256-6.639,3.628-12.374C54.709,31.56,53.509,42.8,53.07,44.61q-2.166,0-2.727-.755a17.8,17.8,0,0,0,1.089-7.873C51.028,32.365,49.834,31.56,53.07,24.624Z" transform="translate(71.024 -4)" fill="url(#linear-gradient-24)"/>
      <path id="Path_37" data-name="Path 37" d="M77.679,45.069c0-4.418,5.118-33.359-5.431-42.054S48.65,7,.593,8.926q-1.187,29.155,0,41.051C1.385,57.907,30.413,69.149,77.679,45.069Z" transform="translate(78.84 186.965)" fill="#3d82f0"/>
      <path id="Path_38" data-name="Path 38" d="M19.758,15.981a28.825,28.825,0,0,1-6.146,11.54c-1.263,1.158-5.858,2.593-6.727,2.315a5.882,5.882,0,0,1-3.259-4.427c-.1-2.237,2.09-3.5,2.1-6.8s5.512-8.1,5.512-11.023S20.891,10.962,19.758,15.981Z" transform="translate(144.906 178.573)" fill="#113275"/>
      <path id="Path_39" data-name="Path 39" d="M27.972,16.071c-3.409,4.522-5.628,5.313-6.906,6.662s-4.2,6.109-5.287,5.316-2.21-2.356-.521-5.316,4.248-6.08,3.36-7.647-5.224-6.2-8.843-7.271-4.821-.381-5.182-.958,4.328-1.416,6.26-1.632a35.3,35.3,0,0,1,8.617,0,4.838,4.838,0,0,0,5.5-3.282Q31.381,11.55,27.972,16.071Z" transform="translate(-4.574 171.596)" fill="#143b8c"/>
      <g id="shirt-3" data-name="shirt" transform="translate(16.09 73.873)">
        <path id="Path_40" data-name="Path 40" d="M138.424,113.919c2.417-1.362,10.508,1.889,10.508,8.464,4.3-14.626,16.221-34.422,16.221-56.057-5.466-18.861-19.726-48.6-22.911-53.262Q139.057,8.4,110.683,0,104.337,6.937,95.64,6.937c-8.7,0-9.153-5.333-11.476-5.611S68.68,6.937,62.189,13.2,48.747,44.114,31.672,63.245,8.472,95.724,0,102.912c3.108,2.783,7.318,4.4,7.318,11.008,3.066-2.248,20.176-14.016,34.677-27.713s20.932-25.089,23.12-26.631c2.517-1.773-3.172,53.093-2.927,62.809s33.65,10.27,44.1,10.27,26.6-3.616,30.748-7.181c.683-.588-1.108-77.729,0-74.492,2.811,8.212,9.338,12.265,9.338,17.673C146.371,81.221,138.409,114.8,138.424,113.919Z" transform="translate(0 0)" fill="url(#linear-gradient-2)"/>
        <g id="shirt-4" data-name="shirt" transform="translate(0 0)" clip-path="url(#clip-path-3)">
          <path id="Path_4" data-name="Path 4" d="M15.5,19.89.531,0s-5.544,64.5,19.2,86.846c4.36-25.845,1.933-39.353,0-50.647A132.3,132.3,0,0,0,15.5,19.89Z" transform="translate(125.038 37.848)" fill="url(#linear-gradient-26)"/>
          <path id="Path_5" data-name="Path 5" d="M52.665,140.418c-5.587-16.368-30.693-70.279-41.437-77.966S-.326,44.843.078,31.674,25.579-7.732,38.7,2.192,86.945,30.425,90.786,61.128s-12.517,77.8-19.907,73.14S58.252,156.786,52.665,140.418Z" transform="translate(82.88 -11.231)" opacity="0.162" fill="url(#linear-gradient-27)"/>
        </g>
      </g>
      <path id="Path_42" data-name="Path 42" d="M27.918,7.787c0,2.993-4.551,11.359-13.34,11.041S4.022,18.267,3.023,13.8c0,6.612-.342,8.563,1.278,12.923s11.723,6.75,17.388,3.129,8.618-5.79,7.79-12.4S27.918,4.794,27.918,7.787Z" transform="translate(97.263 56.149)" fill="url(#linear-gradient-28)"/>
    </g>
    <g id="girl_and_desk" data-name="girl and desk" transform="translate(44.23 35.737)">
      <path id="chair" d="M105.148,20.474,24.554,1Q2.2,61.284,4.267,100.164,28.679,110.283,77.5,126.4l33.28-95.6a7.944,7.944,0,0,0-4.89-10.113Q105.527,20.565,105.148,20.474Z" transform="translate(272.293 99.49)" fill="url(#linear-gradient-29)"/>
      <path id="hair" d="M16.346,14.445c1.726,5.465-3.88,20.9-12.785,28.436S23.3,49.139,23.315,40.732,14.621,8.98,16.346,14.445Z" transform="translate(269.356 91.482)" fill="#316eea"/>
      <path id="arm" d="M67.33,1.807q-10.1,4.166-14.565,8.9C48.3,15.437,26.593,52.242,24.033,54.42S3.859,58.25,1.206,59.119c1.356,1.963,4,8.025,2.639,13.356,4.186,2.107,13.382.226,32.191-1.882,13.992-11.7,21.257-30.165,24.249-38.977A176.659,176.659,0,0,0,67.33,1.807Z" transform="translate(214.474 121.245)" fill="url(#linear-gradient-30)"/>
      <path id="shirt-5" data-name="shirt" d="M22.413,12.807c-5.437,9.3-13.824,27.975-16.205,36.036-2.554,8.646,7.374,31.414,7.259,36.765-.1,4.461,4.495,2.9,45.276,7.008q1.891-11.8,0-29.507C56.852,45.4,64.556,21.578,62.42,17.577S55.088,5.071,52.807,5.071,27.85,3.507,22.413,12.807Z" transform="translate(250.15 116.558)" fill="url(#radial-gradient-3)"/>
      <path id="desk_top" data-name="desk top" d="M428.441,135.213,241.6,2.678a23.828,23.828,0,0,0-12.849.873L73.474,58.738c-38.263,13.6-33.868,69.071,6.059,76.475l30.716,5.7a39.713,39.713,0,0,0,7.24.666H448.083c21.934,0,15.14,36.749,15.14,14.814Z" transform="translate(-47.051 173.176)" fill="url(#linear-gradient-31)"/>
      <path id="shadow" d="M171.2,15.715,73.972,0,0,32.411l107.091,28.41" transform="translate(92.976 220.046)" opacity="0.197" fill="url(#linear-gradient-32)"/>
      <g id="neck-3" data-name="neck" transform="translate(287.816 100.858)">
        <g id="Group_14" data-name="Group 14" transform="translate(0)">
          <path id="Mask_Path-5" data-name="Mask Path" d="M6.887,16.258c1.016,4.748.139,8.183.139,13.587,0,7.223,14.748,4.284,15.252-1.191s-.091-12.816,1.986-17.79S5.871,11.51,6.887,16.258Z" transform="translate(-6.851 -8.925)" fill="url(#linear-gradient-33)"/>
          <path id="Mask_Path-6" data-name="Mask Path" d="M6.887,16.258c1.016,4.748.139,8.183.139,13.587,0,7.223,14.748,4.284,15.252-1.191s-.091-12.816,1.986-17.79S5.871,11.51,6.887,16.258Z" transform="translate(-6.851 -8.925)" fill="url(#linear-gradient-34)"/>
        </g>
        <g id="neck-4" data-name="neck" transform="translate(0 0)" clip-path="url(#clip-path-4)">
          <path id="Path" d="M27.97,24.925S5.692,6.258.551,6.258,27.97,0,27.97,0Z" transform="translate(-6.819 3.537)" opacity="0.717" fill="url(#linear-gradient-35)"/>
        </g>
      </g>
      <path id="face" d="M14.562,9.01c-1.311,4.14-1.164,8.73-3.708,12.683S4.96,29.1,4.07,30.856s3.57,3.317,3.57,4.888-2.972,12.5-1.382,13.544c.906,2.441,17.6,5.824,21.813,3.4,3.716,0,9.442-3.26,12.956-11.27s3.676-27.462,0-32.407S15.873,4.87,14.562,9.01Z" transform="translate(268.762 60.975)" fill="url(#linear-gradient-36)"/>
      <g id="document" transform="translate(175.775 181.512)">
        <path id="Path_43" data-name="Path 43" d="M83.46,48.7,77.891,3.522,1.955,2l6.64,44.106Z" transform="translate(-1.955 -2)" fill="url(#linear-gradient-3)"/>
        <g id="document-2" data-name="document" clip-path="url(#clip-path-5)">
          <path id="Path_2" data-name="Path 2" d="M6.039,35.713,15.925,0H0Z" transform="translate(-3.42 -1.187)" opacity="0.458" fill="url(#linear-gradient-38)"/>
          <path id="Path_7" data-name="Path 7" d="M21.831.547c0,2.85-6.861,6.986-14.928,10.606-4.677,2.1-4.033,6.972-6.068,6.972-5.546,0,33.834,16.008,33.834,16.008s2.136-21.646,0-27.3C32.341.682,21.831-1.018,21.831.547Z" transform="translate(51.235 25.312)" opacity="0.528" fill="url(#linear-gradient-39)"/>
        </g>
      </g>
      <path id="hand" d="M35.365,7.747c-2.306,0-5.1-1.22-9.175-2.152s-6.649-2.413-7.9-1.035c-.489.538.327,1.849.924,2.206A12.129,12.129,0,0,0,22.972,8.7c2.643.977,4.173,1.434,3.7,2.345s-4.807,1.7-6.194,2.07c-1.769.469-4.431,1.382-6.969,1.809-2.836.476-5.97.529-6.33.737-.682.394-1.68,1.876,0,2.349a47.836,47.836,0,0,0,6.758,0c3.728-.181,7.147-.9,6.541,0a24.348,24.348,0,0,1-7.358.914c-2.238,0-6.767.278-7.053.278a1.164,1.164,0,0,0-.616,2.113A56.928,56.928,0,0,0,13.5,22.1c3.993.147,7.526-.215,7.568,0a32.172,32.172,0,0,1-7.957.506c-3.06-.146-4.743-.385-5.315,0s-.427,1.414,0,1.877a18.161,18.161,0,0,0,5.7,1.255c3.877.257,8.09-.192,8.127,0,.1.509-7.066.832-8.127.832-1.511,0-1.321,1.954.428,2.368,2.194.519,6.732.478,8.8.478A25.357,25.357,0,0,0,31,27.787a97.793,97.793,0,0,1,9.881-3.3c2.841-.653.8-9.635-1.166-14.347S37.67,7.747,35.365,7.747Z" transform="translate(228.099 202.137)" fill="url(#linear-gradient-40)"/>
      <path id="arm-2" data-name="arm" d="M76.5,25.725c5.874,15.021,1.23,26.423-1.348,39.437S71.4,80.993,67.291,83.64,53.1,89.974,14.372,94.447c0-3.094.1-10.78-4.964-17.233,7.157,0,32.6-7.017,41.347-9.217,7.859-6.023,0-15.68,0-33.8S70.626,10.7,76.5,25.725Z" transform="translate(255.599 132.342)" fill="url(#linear-gradient-41)"/>
      <g id="glasses" transform="translate(270.112 75.008)">
        <path id="Path_45" data-name="Path 45" d="M2.289,1.156,22.115,4.892V6.376L1.583,4.813Z" transform="translate(17.228 9.296)" fill="#143b8c"/>
        <path id="Path_46" data-name="Path 46" d="M7,16.894c2.289.241,4.454-2.484,4.832-6.081S10.66,4.1,8.371,3.859,3.917,6.343,3.539,9.94,4.712,16.653,7,16.894Z" transform="translate(7.238 1.321)" fill="rgba(0,0,0,0)" stroke="#143b8c" stroke-miterlimit="10" stroke-width="4"/>
        <path id="Path_47" data-name="Path 47" d="M6.674,15.646c2.071.218,4.03-2.248,4.372-5.5S9.985,4.07,7.914,3.852,3.884,6.1,3.542,9.355,4.6,15.428,6.674,15.646Z" transform="translate(-3.49 -3.839)" fill="rgba(0,0,0,0)" stroke="#143b8c" stroke-miterlimit="10" stroke-width="4"/>
        <path id="Path_48" data-name="Path 48" d="M7.308,5.941c0-.907-2.561-2.687-3.846-1.791" transform="translate(3.885 4.065)" fill="rgba(0,0,0,0)" stroke="#143b8c" stroke-miterlimit="10" stroke-width="4"/>
      </g>
      <g id="hair-2" data-name="hair" transform="translate(274.123 46.346)">
        <path id="hair-3" data-name="hair" d="M50.6,30.2c-5.489,4.244-18.26,5.489-26.953,1.388S12.83,10.7,23.644,5.53c4.113-1.965,12.283-.693,11.15,5.229,9.461-3.659,19.75-.455,23.829,1.986,6.356,3.8,11.31,7.946,13.915,16.656s-1.648,17.372.445,21.808,8.259,8.287,4.962,21.918,4.625,11.45,6.411,19.765-3.9,12.281,0,17.822,11.383,28.929-2.628,41.455-40.12,21.653-46.053-5.312S57.572,114,49.405,100.519s-2.757-25.986-4.466-29.841c-2.1-4.743.158-11.981,4.152-21.79C52.791,39.8,47.465,37.377,50.6,30.2Z" transform="translate(-16.307 -4.672)" fill="url(#linear-gradient-42)"/>
        <path id="hair-4" data-name="hair" d="M50.6,30.2c-5.489,4.244-18.26,5.489-26.953,1.388S12.83,10.7,23.644,5.53c4.113-1.965,12.283-.693,11.15,5.229,9.461-3.659,19.75-.455,23.829,1.986,6.356,3.8,11.31,7.946,13.915,16.656s-1.648,17.372.445,21.808,8.259,8.287,4.962,21.918,4.625,11.45,6.411,19.765-3.9,12.281,0,17.822,11.383,28.929-2.628,41.455-40.12,21.653-46.053-5.312S57.572,114,49.405,100.519s-2.757-25.986-4.466-29.841c-2.1-4.743.158-11.981,4.152-21.79C52.791,39.8,47.465,37.377,50.6,30.2Z" transform="translate(-16.307 -4.672)" fill="url(#linear-gradient-43)"/>
      </g>
      <g id="documents" transform="translate(142.709 244.265)">
        <path id="Path_49" data-name="Path 49" d="M95.745,9.08,42.9,0Q-.853,27.343.017,27.518c.825.166,59.177,10.37,63.119,11.428Q62.582,37.534,95.745,9.08Z" transform="translate(21.214 8.738)" fill="url(#linear-gradient-44)"/>
        <path id="Path_50" data-name="Path 50" d="M85.585,3.716,30.36,0,0,26.527l68.8,4.747Z" transform="translate(0)" fill="url(#linear-gradient-45)"/>
      </g>
      <g id="laptop" transform="translate(41.332 155.971)">
        <path id="Path_51" data-name="Path 51" d="M53.361,47.659,3.207,27.687a1.986,1.986,0,0,1,.065-3.714L67.134,1.083l63,15.571Z" transform="translate(-1.955 48.321)" fill="url(#linear-gradient-46)"/>
        <g id="Group_15" data-name="Group 15" transform="translate(51.892)">
          <path id="Mask_Path-7" data-name="Mask Path" d="M89.442,1.806l-70.765,22.9a5.957,5.957,0,0,0-4.024,4.587L1.991,97.92,78.673,66.812,92.5,4.59a2.383,2.383,0,0,0-3.06-2.784Z" transform="translate(-1.991 -1.69)" fill="url(#linear-gradient-47)"/>
          <path id="Mask_Path-8" data-name="Mask Path" d="M89.442,1.806l-70.765,22.9a5.957,5.957,0,0,0-4.024,4.587L1.991,97.92,78.673,66.812,92.5,4.59a2.383,2.383,0,0,0-3.06-2.784Z" transform="translate(-1.991 -1.69)" fill="url(#linear-gradient-48)"/>
        </g>
        <path id="Path_52" data-name="Path 52" d="M14.12,14.056c-3.647,1.779-7.493,1.775-9.079-1.478S6.317,5.643,9.964,3.864s7.1-1.775,8.682,1.478S17.768,12.277,14.12,14.056Z" transform="translate(89.725 36.639)" fill="#d6e3fa"/>
      </g>
      <g id="glasses-2" data-name="glasses" transform="translate(136.479)">
        <path id="Path_53" data-name="Path 53" d="M16.495,6.806a2.78,2.78,0,0,0-2.764-2.795L6.4,3.968A2.78,2.78,0,0,0,3.6,6.8l.061,3.522A2.78,2.78,0,0,0,6.478,13.05l7.254-.092a2.78,2.78,0,0,0,2.745-2.765Z" transform="translate(16.279 -1.193)" fill="none" stroke="#e5effd" stroke-miterlimit="10" stroke-width="3"/>
        <path id="Path_54" data-name="Path 54" d="M15.272,6.833a2.78,2.78,0,0,0-2.781-2.811l-6.2,0A2.78,2.78,0,0,0,3.512,6.832l.034,3.512A2.78,2.78,0,0,0,6.383,13.1l6.129-.127a2.78,2.78,0,0,0,2.723-2.749Z" transform="translate(-3.512 -1.226)" fill="none" stroke="#e5effd" stroke-miterlimit="10" stroke-width="3"/>
        <path id="Path_55" data-name="Path 55" d="M9.9,4H1.955" transform="translate(10.026 2.759)" fill="rgba(0,0,0,0)" stroke="#e5effd" stroke-miterlimit="10" stroke-width="3"/>
        <path id="Path_56" data-name="Path 56" d="M11.432,1.981l-9.678,4.7v4.6l8.76-6.112Z" transform="translate(30.415 -1.981)" fill="#e5effd"/>
      </g>
      <path id="mouth" d="M2.754,1.811c-.39-.2-.267.688-.437,1.21a7.23,7.23,0,0,0-.341.944,7.206,7.206,0,0,0,6.318-.118c.378-.223.707-.406.395-.714s-.7-.115-1.123.01C6.1,3.577,3.762,2.33,2.754,1.811Z" transform="translate(273.48 97.828)" fill="#1a418f"/>
    </g>
  </g>
</svg>
