<svg xmlns="http://www.w3.org/2000/svg" width="102.918" height="30.238" viewBox="0 0 102.918 30.238">
  <g id="Group_2384" data-name="Group 2384" transform="translate(0 0.01)" opacity="0.42">
    <path id="Path_1096" data-name="Path 1096" d="M134.005,40.2h-4.724c-.046-.826-.092-1.559-.138-2.156-1.605.871-3.21,2.2-4.953,2.614-4.953,1.147-8.852-1.926-9.127-7.246-.229-4.495-.046-8.989-.046-13.667h5.091c0,2.2-.046,4.449,0,6.7.046,2.2.046,4.4.275,6.6.183,1.789,1.009,3.21,3.027,3.486,2.11.275,3.852-.413,4.724-2.385a10.516,10.516,0,0,0,.826-3.99c.092-3.44.046-6.879.046-10.457h5Z" transform="translate(-62.23 -10.67)"/>
    <path id="Path_1097" data-name="Path 1097" d="M27.945,39.5H22.9V19.041h4.495c.092.826.138,1.7.275,2.889,1.835-2.247,3.852-3.577,6.558-3.531,4.082.046,7.2,2.522,7.43,6.558.275,4.77.046,9.585.046,14.539H36.659V29.773c0-.78,0-1.513-.046-2.293-.092-3.073-1.422-4.724-3.761-4.816A4.833,4.833,0,0,0,27.9,27.571c-.092,3.44-.046,6.879-.046,10.319A8.406,8.406,0,0,1,27.945,39.5Z" transform="translate(-12.397 -9.965)"/>
    <path id="Path_1098" data-name="Path 1098" d="M87.048,19.8v4.4H81.315V40.209H76.179V24.34H70.4V19.8Z" transform="translate(-38.113 -10.724)"/>
    <path id="Path_1099" data-name="Path 1099" d="M204.856,19.8v4.357h-5.641V40.209h-5.137V24.386H188.3v-4.54C193.712,19.8,199.261,19.8,204.856,19.8Z" transform="translate(-101.94 -10.724)"/>
    <path id="Path_1100" data-name="Path 1100" d="M4.77,40.255H0V19.8H4.77Z" transform="translate(0 -10.724)"/>
    <path id="Path_1101" data-name="Path 1101" d="M168.9,40.155V19.7h4.907V40.155Z" transform="translate(-91.438 -10.67)"/>
    <path id="Path_1102" data-name="Path 1102" d="M84.827,6.186A3.134,3.134,0,0,1,81.8,3.068,3.061,3.061,0,0,1,85.056-.005a2.985,2.985,0,0,1,2.889,3.21A2.979,2.979,0,0,1,84.827,6.186Z" transform="translate(-44.284 0)"/>
    <path id="Path_1103" data-name="Path 1103" d="M205.744,3.117a3.134,3.134,0,0,1-3.073,3.073A3.012,3.012,0,0,1,199.6,2.934,2.968,2.968,0,0,1,202.717,0,3.073,3.073,0,0,1,205.744,3.117Z" transform="translate(-108.056 -0.004)"/>
  </g>
</svg>
