<svg xmlns="http://www.w3.org/2000/svg" xmlns:xlink="http://www.w3.org/1999/xlink" width="2770" height="31" viewBox="0 0 2770 31"><defs><path id="jp46a" d="M1172.872 1018.628v-13.59H2611.63v13.59z"/><path id="jp46b" d="M-157.37 1018.628v-13.59h1438.758v13.59z"/><path id="jp46c" d="M708.268 988h59.768v16.615h-59.768z"/><path id="jp46d" d="M768.036 999.174v2.335h-59.768v-2.335z"/><path id="jp46e" d="M637.61 995.034l4.82-3.742c2.611-2.035 6.698-3.278 10.477-3.278h52.988v16.6h-66.676c-2.246 0-5.95-1.46-5.95-3.832s3.083-4.775 4.333-5.748z"/><path id="jp46f" d="M705.926 999.174v2.335h-59.769l-11.66 1.46a3.473 3.473 0 0 1-.98-1.183l11.69-2.612z"/><path id="jp46g" d="M768.036 988h2.335v16.615h-2.335z"/><path id="jp46h" d="M705.925 988h2.342v16.615h-2.342z"/><path id="jp46i" d="M642.587 991.158h2.62c.509.004.92.418.92.928v4.587c0 .51-.411.924-.92.928h-10.478a19.46 19.46 0 0 1 2.829-2.567l4.82-3.742.156-.12z"/><path id="jp46j" d="M655.43 991.047h7.74c.51.004.923.417.927.928v4.587a.936.936 0 0 1-.928.928h-7.738a.928.928 0 0 1-.92-.928v-4.587c0-.51.41-.924.92-.928z"/><path id="jp46k" d="M666.596 991.047h7.739c.51.004.92.418.92.928v4.587c0 .51-.41.924-.92.928h-7.739a.936.936 0 0 1-.928-.928v-4.587a.936.936 0 0 1 .928-.928z"/><path id="jp46l" d="M677.756 991.047h7.739c.51.004.924.417.928.928v4.587a.936.936 0 0 1-.928.928h-7.739a.936.936 0 0 1-.928-.928v-4.587a.936.936 0 0 1 .928-.928z"/><path id="jp46m" d="M688.915 991.047h7.738a.935.935 0 0 1 .943.928v4.587a.935.935 0 0 1-.928.928h-7.753a.928.928 0 0 1-.92-.928v-4.587c0-.51.41-.924.92-.928z"/><path id="jp46n" d="M719.816 991.047h7.716c.511.004.924.417.928.928v4.587a.936.936 0 0 1-.928.928h-7.716a.928.928 0 0 1-.92-.928v-4.587c0-.51.41-.924.92-.928z"/><path id="jp46o" d="M730.984 991.047h7.73c.512.004.925.417.929.928v4.587a.936.936 0 0 1-.928.928h-7.731a.936.936 0 0 1-.928-.928v-4.587a.936.936 0 0 1 .928-.928z"/><path id="jp46p" d="M742.142 991.047h7.738c.51.004.92.418.92.928v4.587c0 .51-.41.924-.92.928h-7.738a.936.936 0 0 1-.928-.928v-4.587a.936.936 0 0 1 .928-.928z"/><path id="jp46q" d="M753.3 991.047h7.738c.508.008.917.42.92.928v4.587a.935.935 0 0 1-.927.928H753.3a.936.936 0 0 1-.928-.928v-4.587a.936.936 0 0 1 .928-.928z"/><path id="jp46r" d="M838.696 995.034l-4.828-3.742c-2.612-2.035-6.69-3.278-10.477-3.278h-53.018v16.6h66.699c2.245 0 5.95-1.46 5.95-3.832s-3.084-4.775-4.326-5.748z"/><path id="jp46s" d="M770.373 999.174v2.335h59.768l11.66 1.46c.412-.318.749-.722.989-1.183l-11.72-2.612z"/><path id="jp46t" d="M833.71 991.158h-2.641a.935.935 0 0 0-.928.928v4.587c.004.511.417.924.928.928h10.478a19.831 19.831 0 0 0-2.822-2.567l-4.827-3.742-.157-.12z"/><path id="jp46u" d="M820.867 991.158h-7.739a.936.936 0 0 0-.928.928v4.587c.004.511.417.924.928.928h7.739a.936.936 0 0 0 .965-.928v-4.587a.935.935 0 0 0-.928-.928z"/><path id="jp46v" d="M809.709 991.158h-7.739a.935.935 0 0 0-.928.928v4.587c.004.511.418.924.928.928h7.739a.928.928 0 0 0 .898-.928v-4.587a.928.928 0 0 0-.92-.929z"/><path id="jp46w" d="M798.541 991.158h-7.738a.928.928 0 0 0-.92.928v4.587c0 .51.41.924.92.928h7.738a.936.936 0 0 0 .928-.928v-4.587a.936.936 0 0 0-.928-.928z"/><path id="jp46x" d="M787.406 991.158h-7.761a.928.928 0 0 0-.92.928v4.587c0 .51.41.924.92.928h7.76a.935.935 0 0 0 .929-.928v-4.587a.935.935 0 0 0-.928-.928z"/><path id="jp46y" d="M644.009 1007.698c-1.797 0-2.567-.427-3.443-1.497l-1.347-1.587h197.85l-1.339 1.61c-.875 1.047-1.646 1.496-3.442 1.496"/></defs><g><g transform="translate(158 -988)"><use fill="#f2f2f2" xlink:href="#jp46a"/></g><g transform="translate(158 -988)"><use fill="#f9f9f9" xlink:href="#jp46b"/></g><g opacity=".75" transform="translate(158 -988)"><use fill="#fff" xlink:href="#jp46c"/></g><g opacity=".75" transform="translate(158 -988)"><use fill="#157efb" xlink:href="#jp46d"/></g><g opacity=".75" transform="translate(158 -988)"><use fill="#fff" xlink:href="#jp46e"/></g><g opacity=".75" transform="translate(158 -988)"><use fill="#157efb" xlink:href="#jp46f"/></g><g opacity=".75" transform="translate(158 -988)"><use fill="#383838" xlink:href="#jp46g"/></g><g opacity=".75" transform="translate(158 -988)"><use fill="#383838" xlink:href="#jp46h"/></g><g opacity=".75" transform="translate(158 -988)"><use fill="#197bff" xlink:href="#jp46i"/></g><g opacity=".75" transform="translate(158 -988)"><use fill="#197bff" xlink:href="#jp46j"/></g><g opacity=".75" transform="translate(158 -988)"><use fill="#197bff" xlink:href="#jp46k"/></g><g opacity=".75" transform="translate(158 -988)"><use fill="#197bff" xlink:href="#jp46l"/></g><g opacity=".75" transform="translate(158 -988)"><use fill="#197bff" xlink:href="#jp46m"/></g><g opacity=".75" transform="translate(158 -988)"><use fill="#197bff" xlink:href="#jp46n"/></g><g opacity=".75" transform="translate(158 -988)"><use fill="#197bff" xlink:href="#jp46o"/></g><g opacity=".75" transform="translate(158 -988)"><use fill="#197bff" xlink:href="#jp46p"/></g><g opacity=".75" transform="translate(158 -988)"><use fill="#197bff" xlink:href="#jp46q"/></g><g opacity=".75" transform="translate(158 -988)"><use fill="#fff" xlink:href="#jp46r"/></g><g opacity=".75" transform="translate(158 -988)"><use fill="#157efb" xlink:href="#jp46s"/></g><g opacity=".75" transform="translate(158 -988)"><use fill="#197bff" xlink:href="#jp46t"/></g><g opacity=".75" transform="translate(158 -988)"><use fill="#197bff" xlink:href="#jp46u"/></g><g opacity=".75" transform="translate(158 -988)"><use fill="#197bff" xlink:href="#jp46v"/></g><g opacity=".75" transform="translate(158 -988)"><use fill="#197bff" xlink:href="#jp46w"/></g><g opacity=".75" transform="translate(158 -988)"><use fill="#197bff" xlink:href="#jp46x"/></g><g opacity=".75" transform="translate(158 -988)"><use fill="gray" xlink:href="#jp46y"/></g></g></svg>