<svg xmlns="http://www.w3.org/2000/svg" xmlns:xlink="http://www.w3.org/1999/xlink" width="21" height="18" viewBox="0 0 21 18"><defs><path id="6elpa" d="M1576.752 5311.515c-.772.343-1.543.6-2.4.686.857-.515 1.543-1.372 1.886-2.315-.858.514-1.715.857-2.658 1.029a4.15 4.15 0 0 0-3.087-1.372 4.208 4.208 0 0 0-4.202 4.201c0 .343 0 .686.086.943a11.839 11.839 0 0 1-8.746-4.458c-.428.686-.6 1.372-.6 2.143 0 1.458.772 2.744 1.887 3.516-.686 0-1.372-.172-1.887-.515v.086c0 2.058 1.458 3.773 3.344 4.116-.343.085-.686.171-1.114.171-.258 0-.515 0-.772-.086.514 1.715 2.058 2.916 3.944 2.916-1.458 1.114-3.258 1.8-5.23 1.8-.343 0-.686 0-1.03-.085a12.002 12.002 0 0 0 6.432 1.886c7.802 0 12.003-6.43 12.003-12.004v-.514c.858-.6 1.544-1.372 2.144-2.144z"/></defs><g><g transform="translate(-1556 -5309)"><use fill="#fff" xlink:href="#6elpa"/></g></g></svg>