<svg xmlns="http://www.w3.org/2000/svg" width="92.012" height="29.704" viewBox="0 0 92.012 29.704">
  <g id="Group_2381" data-name="Group 2381" transform="translate(-853.998 -874.796)" opacity="0.42">
    <path id="Path_300" data-name="Path 300" d="M4.194,5.885c.621,0,1.243.041,1.864,0,.663-.041.829.228.766.849-.331,3.646-.642,7.292-.953,10.917-.166,2.03-.435,4.06-.476,6.09-.041,1.947.456,3.77,2.4,4.682a5.7,5.7,0,0,0,5.883-.6,5.835,5.835,0,0,0,2.382-4.412c.5-4.7.891-9.384,1.305-14.045.083-.932.166-1.864.228-2.776.021-.435.145-.7.663-.7,1.409.021,2.838.021,4.247,0,.5,0,.663.166.621.684-.539,5.738-.953,11.476-1.616,17.193A11.608,11.608,0,0,1,6.97,33.933a9.468,9.468,0,0,1-7-9.2c-.083-3.459.476-6.877.725-10.316.186-2.589.5-5.158.684-7.747.041-.621.228-.87.849-.808C2.889,5.906,3.552,5.885,4.194,5.885Z" transform="translate(854.04 870.154)"/>
    <path id="Path_301" data-name="Path 301" d="M336.09,24.648c-1.409,0-2.838.041-4.247-.021a1.157,1.157,0,0,0-1.326.829c-.414,1.015-.953,1.989-1.388,3a.953.953,0,0,1-1.056.6c-1.346-.021-2.693-.041-4.039,0-.808.021-.953-.145-.58-.911,2.341-4.5,4.64-9.011,6.94-13.506,2.361-4.64,4.723-9.26,7.105-13.9.145-.29.186-.766.6-.746.414.041.373.518.5.829,3.19,9.094,6.36,18.208,9.57,27.282.311.849.062.974-.7.932-1.284-.041-2.548-.062-3.832,0-.787.041-1.077-.269-1.243-.974-.186-.87-.539-1.7-.746-2.569a.95.95,0,0,0-1.139-.87C339.073,24.669,337.581,24.648,336.09,24.648Zm1.346-13.589c-.083,0-.166-.021-.249-.021-1.3,2.921-2.631,5.842-4,8.887h4.889c1.947,0,1.947,0,1.388-1.885C338.783,15.7,338.12,13.379,337.436,11.059Z" transform="translate(597.713 874.799)"/>
    <path id="Path_302" data-name="Path 302" d="M144.271,11.8c-2.569-3.19-5.779-3.749-9.3-3.066-4.06.787-6.9,4.35-7.167,8.762-.166,2.527.124,4.909,1.926,6.857,2.154,2.32,6.194,2.942,9.612,1.533a13.3,13.3,0,0,0,3.957-2.693c-.207,2.341-.394,4.412-.58,6.463a.6.6,0,0,1-.435.518c-4.889,2.465-9.8,2.755-14.6-.1-3.646-2.175-5.179-5.738-5.407-9.84a16.723,16.723,0,0,1,4.392-12.74A15.113,15.113,0,0,1,144.023,4.61a1.2,1.2,0,0,1,.787,1.346C144.582,7.842,144.458,9.685,144.271,11.8Z" transform="translate(757.091 872.383)"/>
    <path id="Path_303" data-name="Path 303" d="M248.9,33.789c-2.382,0-4.764-.021-7.147.021-.725.021-.953-.186-.891-.932.331-3.542.621-7.064.932-10.606q.559-6.432,1.16-12.864c.041-.539.1-1.1.166-1.636.186-1.781.186-1.781,2.009-1.781.932,0,1.864.021,2.8,0,.539-.021.787.062.725.746-.642,7.043-1.222,14.065-1.885,21.108-.062.725.186.787.766.787,2.9-.021,5.8.021,8.7-.041.891-.021,1.326.062,1.1,1.139a13.916,13.916,0,0,0-.269,3.087c0,.829-.331,1.036-1.119,1.015C253.582,33.748,251.241,33.789,248.9,33.789Z" transform="translate(663.048 870.05)"/>
  </g>
</svg>
