<svg xmlns="http://www.w3.org/2000/svg" xmlns:xlink="http://www.w3.org/1999/xlink" width="228" height="303" viewBox="0 0 228 303"><defs><path id="34wba" d="M549.134 5102.571c35.644 0 64.54 6.26 64.54 13.984 0 7.722-28.896 13.983-64.54 13.983-35.643 0-64.538-6.26-64.538-13.983 0-7.723 28.895-13.984 64.538-13.984z"/><path id="34wbc" d="M619.012 5035.204c4.856 8.508 7.576 18.04 7.576 28.106 0 35.94-34.674 65.077-77.446 65.077-42.773 0-77.447-29.136-77.447-65.077 0-10.652 3.046-20.706 8.446-29.581 34.308 5.431 102.597 5.081 138.871 1.475z"/><path id="34wbe" d="M543.763 5025.124c-3.848-26.626-14.432-65.075-46.253-106.489-18.744-24.395-18.806-83.802-21.513-90.354 14.709 5.058 41.131 18.096 67.766 54.858 27.92 38.537 10.208 117.128 0 141.985z"/><path id="34wbg" d="M542.687 5025.124c2.936-64.724-5.122-105.573-30.458-144.136"/><path id="34wbh" d="M543.882 5052.454c-11.887-19.012-32.89-44.778-71.092-65.67-22.505-12.306-42.522-57.59-46.79-61.677 12.924-1.085 37.469-.019 70.151 19.068 34.26 20.008 47.164 85.894 47.73 108.28z"/><path id="34wbj" d="M543.06 5052.816c-19.517-50.346-39.398-78.79-71.695-99.687"/><path id="34wbk" d="M552.419 5055.06c9.372-20.465 26.948-48.829 62.29-74.558 20.818-15.156 34.88-62.828 38.6-67.448-13.014.587-37.324 4.814-67.4 28.034-31.529 24.341-35.831 91.609-33.49 113.972z"/><path id="34wbm" d="M549.693 5055.016c12.906-52.648 29.018-83.535 58.476-108.507"/><linearGradient id="34wbb" x1="615.83" x2="483.52" y1="5116.56" y2="5116.56" gradientUnits="userSpaceOnUse"><stop offset="0" stop-color="#d9e5f6" stop-opacity=".71"/><stop offset="1" stop-color="#b2c6ea"/></linearGradient><linearGradient id="34wbd" x1="627.67" x2="507.1" y1="5129.47" y2="5097.91" gradientUnits="userSpaceOnUse"><stop offset="0" stop-color="#acc5e9"/><stop offset=".63" stop-color="#d3e3fb"/><stop offset="1" stop-color="#eaf2ff"/></linearGradient><linearGradient id="34wbf" x1="508.43" x2="551.87" y1="4837.29" y2="5027.27" gradientUnits="userSpaceOnUse"><stop offset="0" stop-color="#b1ffbe"/><stop offset=".44" stop-color="#5cdb8e"/><stop offset="1" stop-color="#149654"/></linearGradient><linearGradient id="34wbi" x1="519.9" x2="534.2" y1="4910.74" y2="5039.5" gradientUnits="userSpaceOnUse"><stop offset="0" stop-color="#b1ffbe"/><stop offset=".44" stop-color="#5cdb8e"/><stop offset="1" stop-color="#149654"/></linearGradient><linearGradient id="34wbl" x1="584.52" x2="631.77" y1="4918.42" y2="5056.32" gradientUnits="userSpaceOnUse"><stop offset="0" stop-color="#b1ffbe"/><stop offset=".44" stop-color="#5cdb8e"/><stop offset="1" stop-color="#149654"/></linearGradient></defs><g><g opacity=".7" transform="translate(-426 -4828)"><use fill="url(#34wbb)" xlink:href="#34wba"/></g><g transform="translate(-426 -4828)"><use fill="url(#34wbd)" xlink:href="#34wbc"/></g><g transform="translate(-426 -4828)"><use fill="url(#34wbf)" xlink:href="#34wbe"/></g><g clip-path="url(#clip-d95c5052-4755-41ec-9f04-51740e350151)" opacity=".5" transform="translate(-426 -4828)"><use xlink:href="#34wbg"/><use fill="#fff" fill-opacity="0" stroke="#489c71" stroke-miterlimit="50" stroke-width="3" xlink:href="#34wbg"/></g><g transform="translate(-426 -4828)"><use fill="url(#34wbi)" xlink:href="#34wbh"/></g><g clip-path="url(#clip-e5e263b2-8b90-4ef1-a508-7071430bde66)" opacity=".5" transform="translate(-426 -4828)"><use xlink:href="#34wbj"/><use fill="#fff" fill-opacity="0" stroke="#489c71" stroke-miterlimit="50" stroke-width="3" xlink:href="#34wbj"/></g><g transform="translate(-426 -4828)"><use fill="url(#34wbl)" xlink:href="#34wbk"/></g><g clip-path="url(#clip-d409c846-1ac5-4846-a355-28e078629e01)" opacity=".5" transform="translate(-426 -4828)"><use xlink:href="#34wbm"/><use fill="#fff" fill-opacity="0" stroke="#489c71" stroke-miterlimit="50" stroke-width="3" xlink:href="#34wbm"/></g></g></svg>