<svg xmlns="http://www.w3.org/2000/svg" xmlns:xlink="http://www.w3.org/1999/xlink" width="257" height="328" viewBox="0 0 257 328"><defs><path id="cm19f" d="M385.983 944.338h-14.431c-2.007-4.18-3.337-7.762-3.992-10.747-.982-4.477-2.46-7.808-.982-13.852 1.478-6.044 18.477-9.47 20.621-7.534 2.145 1.936 1.796 2.972 10.293 7.485 5.132 2.726 14.633 7.12 28.501 13.18a7.42 7.42 0 0 1 4.448 6.8c0 2.699-2.163 4.901-4.862 4.95-15.094.272-24.49.408-28.187.408a67.555 67.555 0 0 1-11.409-5.372z"/><path id="cm19h" d="M404.151 927.058c.994-1.057 6.208-4.345 8.442-2.349"/><path id="cm19i" d="M300.853 840.282s44.28-24.649 55.438-29.17c11.16-4.52 28.778-9.286 31.206-7.541 2.428 1.745 17.208 14.448 21.934 33.963 4.726 19.516 8.012 76.33 13.613 80.613-6.716 5.334-55.788 13.486-66.753 9.804 0-13.374-2.066-46.81 0-53.294-4.142 1.964-31.184 15.75-42.349 18.686-5.47 1.438-16.974-12.005-18.868-25.345-1.972-13.884 5.779-27.716 5.779-27.716z"/><path id="cm19m" d="M358.332 872.757c2.733-2.064 10.855-9.175 12.931-10.16-3.542 7.061-6.83 21.237-6.83 27.75-3.274-2.125-6.219-4.296-8.833-6.513 0-6.008.91-9.7 2.732-11.077z"/><path id="cm19p" d="M235.54 897.422c-2.398 1.896-4.734 49.43 0 50.402 4.732.973 17.116-9.968 13.996-30.234-3.12-20.267-11.585-17.874-13.997-20.168z"/><path id="cm19a" d="M250.987 926.336c-5.374 2.793-12.744 1.521-22.109-3.816-2.286 5.163-3.77 8.78-4.453 10.85-2.998 9.096-2.052 13.817 2.839 14.163 6.561.465 14.47.697 23.723.697 5.375-17.389 5.375-24.686 0-21.894z"/><path id="cm19v" d="M237.639 948.905c1.92-4.983-.226-21.33-4.304-25.898-4.079-4.57 14.915 2.937 14.915 2.937s-1.177 11.672-2.676 14.985c-4.412 9.75-8.89 10.456-7.935 7.976z"/><path id="cm19x" d="M222.411 918.409c3.945 2.335 6.237 3.775 11.298 6.145 1.9.89-3.565 3.193-9.05 10.793-4.748 6.578 1.923 11.845 0 12.01-2.88.249-3.399-.713-12.494 2.423-5.461 1.884-14.79 5.475-27.985 10.774a7.64 7.64 0 0 1-8.058-1.502 4.946 4.946 0 0 1-.3-6.928c9.415-10.445 15.375-17.01 17.88-19.697a67.555 67.555 0 0 1 11.71-4.68l-3.425-3.193L211.83 914c4.425 1.383 7.952 2.853 10.581 4.41z"/><path id="cm19A" d="M198.068 948.411c1.117.993 4.593 6.207 2.483 8.442"/><path id="cm19B" d="M203.033 945.928c1.118.993 4.594 6.207 2.483 8.442"/><path id="cm19C" d="M208 943.942c1.117.993 4.593 6.207 2.482 8.442"/><path id="cm19D" d="M252.648 845.883c-6.15 8.745-8.029 23.537-3.864 33.723 3.696 9.042 18.15 18.962 21.377 20.31-7.272 0-31.628-1.205-34.758-2.436 2.837 14.87 17.245 38.784 2.837 50.499 10.544 1.19 101.324 2.38 110.769 1.19 9.444-1.19 40.647 3.548 43.421-12.905 2.775-16.453-19.153-39.04-26.104-44.716-6.95-5.676-45.976-30.06-52.622-37.37-6.647-7.31-54.906-17.04-61.056-8.295z"/><path id="cm19H" d="M235.387 897.632c1.879 8.729 10.976 15.739 27.29 21.03 24.472 7.939 48.571-2.11 53.687 0-8.312-2.694-29.366-8.719-46.397-18.653-5.919.007-17.445-.786-34.58-2.377z"/><path id="cm19b" d="M295.952 646.567c4.255 5.043 5.05 7.343 9.646 11.439 4.598 4.095 10.908 5.548 12.734 6.191 1.826.644-3.652 4.725-1.826 10.013 1.826 5.287 5.69 13.071 5.69 15.14 0 2.07-7.225 5.72-14.058 8.799-6.834 3.08-7.8 5.67-7.009 10.893.792 5.223 1.915 11.965 7.009 14.917 3.395 1.967-6.214-1.53-28.829-10.491-9.6-21.523-12-39.063-7.2-52.62 7.2-20.335 19.589-19.325 23.843-14.281z"/><path id="cm19M" d="M286.428 685.638c1.965 2.385 5.336 6.91 9.542 9.46 3.966 2.406 10.991 2.463 15.222 2.463 8.718 0-11.726 16.179-11.726 16.179l-13.038-2.609s-3.818-30.127 0-25.493z"/><path id="cm19O" d="M296.624 660.087c0-1.838 2.281-5.03 4.214-5.03"/><path id="cm19P" d="M303.968 664.828c.826-.22 1.103-1.383.62-2.6-.482-1.215-1.542-2.023-2.367-1.804-.826.22-1.103 1.383-.62 2.6.482 1.215 1.542 2.023 2.367 1.804z"/><path id="cm19Q" d="M316.145 674.206c.438-.33.391.302.711.909.32.606.65 1.662.79 2.069-1.815 1.37-5.502.704-8.062-.269-.513-.195-1.043-.84-.723-1.285.32-.445.841-.29 1.386-.227 1.901.223 4.767-.343 5.898-1.197z"/><path id="cm19R" d="M392.73 700.614c-.657-1.033-1.27-15.83.497-17.877 1.766-2.048 6.301-4.562 6.952-3.973.65.589 2.25 3.78.993 4.47-1.257.69-3.656 3.106-3.476 3.972.18.866.55 3.432 1.49 4.47.94 1.036-4.921 11.35-6.456 8.938z"/><path id="cm19S" d="M414.522 671.327c1.432-1.219 8.289-4.557 9.02-1.998.487 1.707-1.766 3.916-6.759 6.628-2.462-2.274-3.216-3.818-2.261-4.63z"/><path id="cm19T" d="M386.161 683.701l28.322-13.77a4.054 4.054 0 0 1 5.143 1.394 3.633 3.633 0 0 1-.92 4.983l-26.046 18.464a6.418 6.418 0 0 1-9.245-1.985 6.463 6.463 0 0 1 2.746-9.086z"/><path id="cm19U" d="M385.32 717.084c3.462-4.32 5.648-7.135 6.557-8.441.641-.921-.389-6.969.972-9.454 1.36-2.486 2.317-3.27 3.302-4.712.322-.47 1.89-2.81 2.32-4.157 1.137-3.557 1.487-5.258 1.73-7.274.336-2.779 7.808-8.446 8.722-10.438.915-1.992 2.99-2.62 4.097 0 1.107 2.62-6.402 9.487-6.402 13.101 0 .217 3.207-4.77 5.202-5.267 1.817 0 1.594 2.501 2.384 5.967.77 3.38 5.114 7.49 5.114 11.888 0 2.551.006 4.617 0 5.012-.065 3.752-13.689 14.38-16.663 18.643a229.873 229.873 0 0 1-6.504 8.838z"/><path id="cm19W" d="M243.168 846.531c-1.868 8.118-3.169 13.103-3.904 14.953-1.102 2.777 21.038 6.21 45.21 5.983 20.836-.196 35.196-2.602 39.23-5.462-3.868-3.48-4.844-6.527-5.361-8.691-3.863-4.522-28.922-6.783-75.175-6.783z"/><path id="cm19Y" d="M284.922 705.71c4.888 1.235 16.28 3.054 18.602 3.014 2.322-.04 6.205 16.86 5.962 18.36-.243 1.5-23.01-6.702-24.564-8.646-1.553-1.944-4.887-13.962 0-12.728z"/><path id="cm19aa" d="M231.7 845.469c3.427-6.815 27.034-70.168 27.272-84.684.239-14.516 4.583-44.289 17.24-44.19 12.66.099 38.847 12.089 43.132 15.296 4.284 3.207 8.247 17.078 8.247 24.745 0 3.786.06 26.586 0 49.75-.058 22.303 7.2 44.935 7.595 45.854-19.998 6.633-98.183 3.272-103.486-6.771z"/><path id="cm19c" d="M231.7 845.469c3.427-6.815 27.033-70.168 27.272-84.684.239-14.515 4.582-44.289 17.24-44.19 12.66.099 38.847 12.089 43.132 15.296 4.284 3.207 8.247 17.078 8.247 24.746v.022c0 2.555.027 13.43.027 27.213a8695.412 8695.412 0 0 1-.027 22.776c-.001 22.218 7.201 44.676 7.595 45.592-7.047 2.337-21.325 3.434-37.09 3.434-28.967 0-62.962-3.701-66.396-10.205z"/><path id="cm19ae" d="M241.519 774.854l18.87 93.358"/><path id="cm19af" d="M258.403 757.97l24.83 109.249"/><path id="cm19ag" d="M275.287 733.14l30.292 140.038"/><path id="cm19ah" d="M241.519 793.724l100.807 27.809"/><path id="cm19ai" d="M239.036 821.533l100.807 27.809"/><path id="cm19aj" d="M239.036 766.908l100.807 27.81"/><path id="cm19ak" d="M239.036 731.65l100.807 27.81"/><path id="cm19al" d="M325.26 855.166s-24.83-76.13-24.83-84.518c0-8.39 27.548-4.039 27.548-4.039l15.41 88.557z"/><path id="cm19an" d="M376.43 724.383c3.61-3.055 8.672-9.154 11.523-12.773 2.85-3.62 18.628 12.867 15.556 17.002-3.072 4.135-9.266 11.808-12.277 14.046-3.01 2.238-18.413-15.22-14.803-18.275z"/><path id="cm19ap" d="M303.29 774.908c6.917 4.475 54.032 17.499 59.269 15.577 5.237-1.922 37.913-41.357 39.746-45.636 1.834-4.278-21.198-27.966-23.95-24.35-2.752 3.614-25.538 31.949-28.096 31.949-2.559 0-29.902-22.914-37.905-24.21-8.002-1.298-13.911 8.453-15.433 13.563-1.521 5.11-.548 28.632 6.37 33.107z"/><path id="cm19d" d="M303.29 774.908c-5.134-3.321-6.994-17.134-6.989-26.125.002-3.123.228-5.664.62-6.982 1.522-5.11 7.43-14.86 15.433-13.564 8.003 1.297 35.347 24.21 37.904 24.21 2.559 0 25.345-28.333 28.097-31.949 2.647-3.477 24.056 18.306 24.054 23.78 0 .217-.034.408-.104.571-1.833 4.279-34.51 43.714-39.746 45.636-.356.13-.904.192-1.62.192-9.832 0-51.202-11.598-57.649-15.77z"/><path id="cm19at" d="M290.417 750.765l65.422 22.785 35.782-50.946"/><path id="cm19au" d="M306.075 724.202l22.347 62.073"/><path id="cm19av" d="M321.966 724.202l22.347 62.073"/><path id="cm19aw" d="M348.285 748.038l23.34 60.584"/><path id="cm19ax" d="M352.755 744.562l33.768 34.761"/><path id="cm19ay" d="M359.707 731.154l41.217 35.754"/><path id="cm19az" d="M366.66 723.209l45.189 26.815"/><path id="cm19e" d="M286.218 664.96c9.477-3.063 1.163-16.149 4.521-16.149 1.393 0 7.01-1.075 8.466-4.113 3.225-6.735-4.165-12.739-22.546-11.339-31.408 2.393-33.069 34.964-30.414 51.262 2.654 16.299-32.135 65.79-21.17 86.982 10.966 21.193 32.911 13.077 51.584-5.424 18.672-18.5 13.755-81.215 8.86-84.205-4.894-2.989-8.777-13.952.7-17.014z"/><path id="cm19aD" d="M287.838 683.452c0 6.396-12.193 86.731-23.134 93.004-10.94 6.273 33.776 5.988 33.776-5.995s-10.642-93.405-10.642-87.01z"/><linearGradient id="cm19g" x1="426.85" x2="413.35" y1="917.51" y2="939.53" gradientUnits="userSpaceOnUse"><stop offset="0" stop-color="#47689b"/><stop offset="1" stop-color="#223762"/></linearGradient><linearGradient id="cm19j" x1="384.59" x2="445.57" y1="873.28" y2="901.52" gradientUnits="userSpaceOnUse"><stop offset="0" stop-color="#a5beec"/><stop offset="1" stop-color="#7b90b6"/></linearGradient><radialGradient id="cm19k" cx="13024.05" cy="911.07" r="7373.85" gradientUnits="userSpaceOnUse"><stop offset="0" stop-color="#e6f1ff" stop-opacity=".5"/><stop offset="1" stop-color="#a7c0eb" stop-opacity="0"/></radialGradient><linearGradient id="cm19l" x1="376.47" x2="324.17" y1="855.78" y2="866.72" gradientUnits="userSpaceOnUse"><stop offset="0" stop-color="#b5c9ee" stop-opacity="0"/><stop offset="1" stop-color="#859bc5"/></linearGradient><linearGradient id="cm19n" x1="366.13" x2="366.13" y1="891.31" y2="867.25" gradientUnits="userSpaceOnUse"><stop offset="0" stop-color="#8da6d5"/><stop offset="1" stop-color="#6a87bd"/></linearGradient><linearGradient id="cm19o" x1="366.13" x2="366.13" y1="891.31" y2="867.25" gradientUnits="userSpaceOnUse"><stop offset="0" stop-color="#8da6d5"/><stop offset="1" stop-color="#6a87bd"/></linearGradient><linearGradient id="cm19q" x1="241.52" x2="234.88" y1="949.4" y2="902.57" gradientUnits="userSpaceOnUse"><stop offset="0" stop-color="#001c44"/><stop offset="1" stop-color="#89a3d0"/></linearGradient><linearGradient id="cm19r" x1="241.52" x2="234.88" y1="949.4" y2="902.57" gradientUnits="userSpaceOnUse"><stop offset="0" stop-color="#001c44"/><stop offset="1" stop-color="#89a3d0"/></linearGradient><linearGradient id="cm19s" x1="225.41" x2="239.04" y1="916.59" y2="940.82" gradientUnits="userSpaceOnUse"><stop offset="0" stop-color="#70b8f9"/><stop offset="1" stop-color="#3d82f0"/></linearGradient><linearGradient id="cm19t" x1="225.41" x2="239.04" y1="916.59" y2="940.82" gradientUnits="userSpaceOnUse"><stop offset="0" stop-color="#70b8f9"/><stop offset="1" stop-color="#3d82f0"/></linearGradient><linearGradient id="cm19w" x1="242.1" x2="240.44" y1="926.18" y2="950.12" gradientUnits="userSpaceOnUse"><stop offset="0" stop-color="#70b8f9" stop-opacity="0"/><stop offset="1" stop-color="#0042a6"/></linearGradient><linearGradient id="cm19y" x1="180.9" x2="193.15" y1="926.37" y2="949.49" gradientUnits="userSpaceOnUse"><stop offset="0" stop-color="#47689b"/><stop offset="1" stop-color="#223762"/></linearGradient><linearGradient id="cm19z" x1="180.9" x2="193.15" y1="926.37" y2="949.49" gradientUnits="userSpaceOnUse"><stop offset="0" stop-color="#47689b"/><stop offset="1" stop-color="#223762"/></linearGradient><linearGradient id="cm19E" x1="246.26" x2="287.86" y1="860.02" y2="924.66" gradientUnits="userSpaceOnUse"><stop offset="0" stop-color="#5973a7"/><stop offset="1" stop-color="#b2c7ee" stop-opacity="0"/></linearGradient><linearGradient id="cm19F" x1="375.62" x2="330.23" y1="864.84" y2="904.19" gradientUnits="userSpaceOnUse"><stop offset="0" stop-color="#fff" stop-opacity=".5"/><stop offset="1" stop-color="#fff" stop-opacity="0"/></linearGradient><linearGradient id="cm19G" x1="315.26" x2="315.26" y1="931" y2="953.37" gradientUnits="userSpaceOnUse"><stop offset="0" stop-color="#b0c8f2" stop-opacity="0"/><stop offset="1" stop-color="#96b0da"/></linearGradient><linearGradient id="cm19I" x1="260.41" x2="289.22" y1="912.16" y2="902.28" gradientUnits="userSpaceOnUse"><stop offset="0" stop-color="#8da6d5"/><stop offset="1" stop-color="#6a87bd"/></linearGradient><linearGradient id="cm19J" x1="315" x2="301.47" y1="651.7" y2="680.03" gradientUnits="userSpaceOnUse"><stop offset="0" stop-color="#70a6f9"/><stop offset="1" stop-color="#3d82f0"/></linearGradient><linearGradient id="cm19K" x1="315" x2="301.47" y1="651.7" y2="680.03" gradientUnits="userSpaceOnUse"><stop offset="0" stop-color="#70a6f9"/><stop offset="1" stop-color="#3d82f0"/></linearGradient><linearGradient id="cm19N" x1="308.63" x2="286.11" y1="697.29" y2="713.74" gradientUnits="userSpaceOnUse"><stop offset="0" stop-color="#023786"/><stop offset="1" stop-color="#3d82f0"/></linearGradient><linearGradient id="cm19V" x1="414.57" x2="408.33" y1="710.52" y2="694.12" gradientUnits="userSpaceOnUse"><stop offset="0" stop-color="#1861bd"/><stop offset="1" stop-color="#3d82f0"/></linearGradient><linearGradient id="cm19X" x1="237.29" x2="324.2" y1="857.04" y2="857.04" gradientUnits="userSpaceOnUse"><stop offset="0" stop-color="#88a1c8"/><stop offset=".34" stop-color="#b7cae6"/><stop offset="1" stop-color="#dfebff"/></linearGradient><linearGradient id="cm19Z" x1="306.72" x2="294.9" y1="707.19" y2="721.59" gradientUnits="userSpaceOnUse"><stop offset="0" stop-color="#f1f7ff"/><stop offset="1" stop-color="#a7bcde"/></linearGradient><linearGradient id="cm19ab" x1="290.84" x2="224.93" y1="787.51" y2="846.55" gradientUnits="userSpaceOnUse"><stop offset="0" stop-color="#fff"/><stop offset="1" stop-color="#eaefff"/></linearGradient><linearGradient id="cm19ac" x1="310.14" x2="250.97" y1="787.51" y2="777.83" gradientUnits="userSpaceOnUse"><stop offset="0" stop-color="#fff" stop-opacity="0"/><stop offset="1" stop-color="#d8e1f0"/></linearGradient><linearGradient id="cm19am" x1="349.61" x2="305.09" y1="804.88" y2="842.8" gradientUnits="userSpaceOnUse"><stop offset="0" stop-color="#9baecf" stop-opacity=".77"/><stop offset=".39" stop-color="#cddbf4" stop-opacity=".66"/><stop offset="1" stop-color="#feffff" stop-opacity=".58"/></linearGradient><linearGradient id="cm19ao" x1="381.21" x2="400.14" y1="713.7" y2="745.8" gradientUnits="userSpaceOnUse"><stop offset="0" stop-color="#f1f7ff"/><stop offset="1" stop-color="#a7bcde"/></linearGradient><linearGradient id="cm19aq" x1="311.77" x2="323.29" y1="733.8" y2="792.97" gradientUnits="userSpaceOnUse"><stop offset="0" stop-color="#fff"/><stop offset="1" stop-color="#e9f0fc"/></linearGradient><linearGradient id="cm19ar" x1="347.4" x2="368.93" y1="766.44" y2="797.26" gradientUnits="userSpaceOnUse"><stop offset="0" stop-color="#fff" stop-opacity="0"/><stop offset="1" stop-color="#abbfd6"/></linearGradient><radialGradient id="cm19aA" cx="25032.36" cy="13576.06" r="5389.97" gradientUnits="userSpaceOnUse"><stop offset="0" stop-color="#3162ae"/><stop offset="1" stop-color="#223762"/></radialGradient><radialGradient id="cm19aB" cx="25032.36" cy="13576.06" r="5389.97" gradientUnits="userSpaceOnUse"><stop offset="0" stop-color="#3162ae"/><stop offset="1" stop-color="#223762"/></radialGradient><linearGradient id="cm19aE" x1="267.4" x2="286.36" y1="717.76" y2="751.91" gradientUnits="userSpaceOnUse"><stop offset="0" stop-color="#001630" stop-opacity=".06"/><stop offset="1" stop-color="#081e41"/></linearGradient><clipPath id="cm19u"><use xlink:href="#cm19a"/></clipPath><clipPath id="cm19L"><use xlink:href="#cm19b"/></clipPath><clipPath id="cm19ad"><use xlink:href="#cm19c"/></clipPath><clipPath id="cm19as"><use xlink:href="#cm19d"/></clipPath><clipPath id="cm19aC"><use xlink:href="#cm19e"/></clipPath></defs><g><g transform="translate(-174 -633)"><g><g><g><use fill="url(#cm19g)" xlink:href="#cm19f"/></g><g><use xlink:href="#cm19h"/><use fill="#fff" fill-opacity="0" stroke="#d2ddf1" stroke-miterlimit="50" stroke-width="4" xlink:href="#cm19h"/></g></g><g><g><g><use fill="url(#cm19j)" xlink:href="#cm19i"/></g><g><use fill="url(#cm19k)" xlink:href="#cm19i"/></g><g><use fill="url(#cm19l)" xlink:href="#cm19i"/></g></g><g><g/></g></g><g><g><use fill="url(#cm19n)" xlink:href="#cm19m"/></g><g><g><use fill="url(#cm19o)" xlink:href="#cm19m"/></g></g></g><g><g><use fill="url(#cm19q)" xlink:href="#cm19p"/></g><g><g><use fill="url(#cm19r)" xlink:href="#cm19p"/></g></g></g><g><g><use fill="url(#cm19s)" xlink:href="#cm19a"/></g><g><g><use fill="url(#cm19t)" xlink:href="#cm19a"/></g><g clip-path="url(#cm19u)" opacity=".6"><use fill="url(#cm19w)" xlink:href="#cm19v"/></g></g></g><g><g><g><use fill="url(#cm19y)" xlink:href="#cm19x"/></g><g><g><use fill="url(#cm19z)" xlink:href="#cm19x"/></g></g></g><g><use xlink:href="#cm19A"/><use fill="#fff" fill-opacity="0" stroke="#d2ddf1" stroke-miterlimit="50" stroke-width="4" xlink:href="#cm19A"/></g><g><use xlink:href="#cm19B"/><use fill="#fff" fill-opacity="0" stroke="#d2ddf1" stroke-miterlimit="50" stroke-width="4" xlink:href="#cm19B"/></g><g><use fill="#fff" fill-opacity="0" stroke="#d2ddf1" stroke-linecap="round" stroke-linejoin="round" stroke-miterlimit="50" stroke-width="4" xlink:href="#cm19C"/></g></g><g><g><g><use fill="#b2c7ee" xlink:href="#cm19D"/></g><g><use fill="url(#cm19E)" xlink:href="#cm19D"/></g><g><use fill="url(#cm19F)" xlink:href="#cm19D"/></g><g><use fill="url(#cm19G)" xlink:href="#cm19D"/></g></g><g><use fill="url(#cm19I)" xlink:href="#cm19H"/></g></g></g><g><g><use fill="url(#cm19J)" xlink:href="#cm19b"/></g><g><g><use fill="url(#cm19K)" xlink:href="#cm19b"/></g><g clip-path="url(#cm19L)"><use fill="url(#cm19N)" xlink:href="#cm19M"/></g><g clip-path="url(#cm19L)"><use xlink:href="#cm19O"/><use fill="#fff" fill-opacity="0" stroke="#223762" stroke-miterlimit="50" stroke-width="3" xlink:href="#cm19O"/></g><g clip-path="url(#cm19L)"><use fill="#223762" xlink:href="#cm19P"/></g><g clip-path="url(#cm19L)"><use fill="#223762" xlink:href="#cm19Q"/></g></g></g><g><g><use fill="#346cc7" xlink:href="#cm19R"/></g><g><g><use fill="#9db6e2" xlink:href="#cm19S"/></g><g><use fill="#223762" xlink:href="#cm19T"/></g></g><g><use fill="url(#cm19V)" xlink:href="#cm19U"/></g></g><g><g><use fill="url(#cm19X)" xlink:href="#cm19W"/></g><g><use fill="url(#cm19Z)" xlink:href="#cm19Y"/></g><g><g><g><use fill="url(#cm19ab)" xlink:href="#cm19aa"/></g><g><use fill="url(#cm19ac)" xlink:href="#cm19aa"/></g></g><g><g/><g clip-path="url(#cm19ad)" opacity=".43"><use fill="#fff" fill-opacity="0" stroke="#fff" stroke-linecap="square" stroke-miterlimit="50" stroke-width="3" xlink:href="#cm19ae"/></g><g clip-path="url(#cm19ad)" opacity=".43"><use fill="#fff" fill-opacity="0" stroke="#fff" stroke-linecap="square" stroke-miterlimit="50" stroke-width="3" xlink:href="#cm19af"/></g><g clip-path="url(#cm19ad)" opacity=".43"><use fill="#fff" fill-opacity="0" stroke="#fff" stroke-linecap="square" stroke-miterlimit="50" stroke-width="3" xlink:href="#cm19ag"/></g><g clip-path="url(#cm19ad)" opacity=".43"><use fill="#fff" fill-opacity="0" stroke="#fff" stroke-linecap="square" stroke-miterlimit="50" stroke-width="3" xlink:href="#cm19ah"/></g><g clip-path="url(#cm19ad)" opacity=".43"><use fill="#fff" fill-opacity="0" stroke="#fff" stroke-linecap="square" stroke-miterlimit="50" stroke-width="3" xlink:href="#cm19ai"/></g><g clip-path="url(#cm19ad)" opacity=".43"><use fill="#fff" fill-opacity="0" stroke="#fff" stroke-linecap="square" stroke-miterlimit="50" stroke-width="3" xlink:href="#cm19aj"/></g><g clip-path="url(#cm19ad)" opacity=".43"><use fill="#fff" fill-opacity="0" stroke="#fff" stroke-linecap="square" stroke-miterlimit="50" stroke-width="3" xlink:href="#cm19ak"/></g><g clip-path="url(#cm19ad)"><use fill="url(#cm19am)" xlink:href="#cm19al"/></g></g></g><g><use fill="url(#cm19ao)" xlink:href="#cm19an"/></g><g><g><g><use fill="url(#cm19aq)" xlink:href="#cm19ap"/></g><g><use fill="url(#cm19ar)" xlink:href="#cm19ap"/></g></g><g><g/><g clip-path="url(#cm19as)" opacity=".43"><use fill="#fff" fill-opacity="0" stroke="#fff" stroke-linecap="square" stroke-miterlimit="50" stroke-width="3" xlink:href="#cm19at"/></g><g clip-path="url(#cm19as)" opacity=".43"><use fill="#fff" fill-opacity="0" stroke="#fff" stroke-linecap="square" stroke-miterlimit="50" stroke-width="3" xlink:href="#cm19au"/></g><g clip-path="url(#cm19as)" opacity=".43"><use fill="#fff" fill-opacity="0" stroke="#fff" stroke-linecap="square" stroke-miterlimit="50" stroke-width="3" xlink:href="#cm19av"/></g><g clip-path="url(#cm19as)" opacity=".43"><use fill="#fff" fill-opacity="0" stroke="#fff" stroke-linecap="square" stroke-miterlimit="50" stroke-width="3" xlink:href="#cm19aw"/></g><g clip-path="url(#cm19as)" opacity=".43"><use fill="#fff" fill-opacity="0" stroke="#fff" stroke-linecap="square" stroke-miterlimit="50" stroke-width="3" xlink:href="#cm19ax"/></g><g clip-path="url(#cm19as)" opacity=".43"><use fill="#fff" fill-opacity="0" stroke="#fff" stroke-linecap="square" stroke-miterlimit="50" stroke-width="3" xlink:href="#cm19ay"/></g><g clip-path="url(#cm19as)" opacity=".43"><use fill="#fff" fill-opacity="0" stroke="#fff" stroke-linecap="square" stroke-miterlimit="50" stroke-width="3" xlink:href="#cm19az"/></g></g></g></g><g><g><use fill="url(#cm19aA)" xlink:href="#cm19e"/></g><g><g><use fill="url(#cm19aB)" xlink:href="#cm19e"/></g><g clip-path="url(#cm19aC)"><use fill="url(#cm19aE)" xlink:href="#cm19aD"/></g></g></g></g><g transform="translate(-174 -633)"><g><text dominant-baseline="text-before-edge" style="line-height:30px;font-kerning:normal" fill="#fff" font-family="'Roboto','Roboto-Bold'" font-size="16" font-style="none" font-weight="700" transform="translate(357 804)"><tspan></tspan></text></g></g></g></svg>